<?xml version="1.0" encoding="UTF-8" standalone="no"?><!DOCTYPE svg PUBLIC "-//W3C//DTD SVG 1.1//EN" "http://www.w3.org/Graphics/SVG/1.1/DTD/svg11.dtd"><svg width="100%" height="100%" viewBox="0 0 4680 3309" version="1.1" xmlns="http://www.w3.org/2000/svg" xmlns:xlink="http://www.w3.org/1999/xlink" xml:space="preserve" xmlns:serif="http://www.serif.com/" style="fill-rule:evenodd;clip-rule:evenodd;"><g><g><g><clipPath id="_clip1"><rect x="1921.962" y="1198.329" width="837.066" height="912.023"/></clipPath><g clip-path="url(#_clip1)"><g><clipPath id="_clip2"><path d="M1971.94,1198.329l738.672,0c27.604,0 49.978,22.374 49.978,49.978l0,810.742c0,27.604 -22.374,49.978 -49.978,49.978l-738.672,0c-27.604,0 -49.978,-22.374 -49.978,-49.978l0,-810.742c0,-27.604 22.374,-49.978 49.978,-49.978Z"/></clipPath><g clip-path="url(#_clip2)"><path d="M1971.94,1198.329l738.672,0c27.604,0 49.978,22.374 49.978,49.978l0,810.742c0,27.604 -22.374,49.978 -49.978,49.978l-738.672,0c-27.604,0 -49.978,-22.374 -49.978,-49.978l0,-810.742c0,-27.604 22.374,-49.978 49.978,-49.978Z" style="fill:none;fill-rule:nonzero;stroke:#f5f2ef;stroke-width:74.96px;"/></g></g></g></g><g><g><g><path d="M2269.851,1462.786c1.15,0 2.083,0.434 2.778,1.302c0.694,0.825 1.042,1.78 1.042,2.865c-2.04,21.246 -3.212,40.951 -3.559,59.115c-0.174,1.91 -0.26,4.774 -0.26,8.594l-0.174,8.594l-0.955,0c-0.76,0 -1.194,0.065 -1.302,0.174c-0.13,0.13 -0.955,0.174 -2.517,0.174l0.434,0.434l-0.434,0.347l0.434,0l0.781,-0.174c0.217,0.13 0.868,0.174 1.91,0.174l1.302,0c0.217,0 0.347,0.065 0.347,0.174l0,0.434l-0.955,0l0.434,0.174l-0.434,0.347l0.955,0c-0.13,9.679 -0.174,24.11 -0.174,43.316c0,2.669 -1.28,3.993 -3.819,3.993l-25.174,0.521c-1.736,0 -3.016,-0.803 -3.819,-2.431l-2.865,-7.986l0.26,0l0,-0.26l-0.434,0l-15.017,-40.017c0.977,-0.521 1.736,-0.955 2.257,-1.302l-0.955,0.174l-0.347,-0.174l-0.955,0.174l-0.434,0.174l-7.205,-19.01l-1.302,67.448c-0.304,2.561 -1.649,3.819 -4.08,3.819l-25.694,0c-1.172,0 -2.083,-0.369 -2.778,-1.128c-0.694,-0.738 -1.042,-1.693 -1.042,-2.865c0.239,-6.597 0.76,-15.994 1.562,-28.212l0.174,-4.601c1.389,-23.893 2.452,-40.842 3.212,-50.868l3.472,-39.844c0.109,-2.3 1.389,-3.516 3.819,-3.646l18.229,-0.521c4.102,-0.282 7.595,0.738 10.503,3.038c2.951,2.257 5.295,5.447 7.031,9.549l0.26,0.174l15.799,41.319l3.038,-50.521c0,-2.365 1.324,-3.559 3.993,-3.559l22.656,0.521Zm-69.705,26.736c-0.304,0 -0.564,0.174 -0.781,0.521l1.128,0.608c0,-0.521 -0.13,-0.89 -0.347,-1.128Zm-2.344,9.896l0,-0.608l-1.128,0l0,0.608l1.128,0Zm3.125,0.955c0.456,-0.391 0.694,-0.868 0.694,-1.389l-1.128,0l0,0.781c0.282,0.304 0.434,0.499 0.434,0.608Zm8.941,-0.174c-0.651,-0.629 -1.107,-1.042 -1.389,-1.215c0,0.521 0.13,1.042 0.434,1.562l0.521,-0.174l0.434,-0.174Zm-4.427,1.302c0.391,0 0.911,-0.195 1.562,-0.608l0.174,-0.347l-3.472,0l0,-0.608l-1.476,0l0,0.781l1.476,0l0,-0.174l0.434,0.347l0.781,0.434c0,0.13 0.174,0.174 0.521,0.174Zm2.865,0.174l0.434,-0.521l-1.562,-0.434l0,0.608l1.128,0.347Zm1.389,0.174c0.629,0 1.128,-0.174 1.476,-0.521c-0.521,-0.391 -0.955,-0.608 -1.302,-0.608c-0.304,0.304 -0.347,0.499 -0.174,0.608l0,0.521Zm-6.337,0.26c0.391,0.651 0.977,0.76 1.736,0.347c-0.412,-0.217 -0.998,-0.347 -1.736,-0.347Zm-2.865,10.069l0,0.781l1.562,0l0,-0.781l-1.562,0Zm8.247,2.431l1.91,0l0,-0.694l-1.91,0l0,0.694Zm2.604,5.382c0,-0.391 -0.434,-0.781 -1.302,-1.128c0.217,0.998 0.543,1.628 0.955,1.91l0.347,-0.781Zm13.542,-0.781c0,0.651 -0.087,1.085 -0.26,1.302c-0.174,0.174 -0.738,0.26 -1.649,0.26l0.434,0.521l2.431,-1.649l-0.955,-0.434Zm-15.972,1.562l0,-1.128l-1.389,0l0,1.128l1.389,0Zm13.108,1.476l0,-1.128l-0.955,0l0,1.128l0.955,0Zm-17.882,-0.521c0.521,0.651 0.911,0.933 1.215,0.868c0.347,-0.043 0.564,-0.347 0.694,-0.868l-1.91,0Zm20.399,1.476l0,-0.955l-0.434,-0.347l-0.174,0.608l0.434,0.694l0.174,0Zm-12.413,-0.955c1.15,0.412 2.04,0.412 2.691,0l-2.691,0Zm-4.167,1.562l0,0.781l1.91,0l0,-0.781l-1.91,0Zm-5.903,1.91c0,-0.282 -0.152,-0.651 -0.434,-1.128l0,-0.434c-0.868,0 -1.519,0.217 -1.91,0.608l0,0.955l2.344,0Zm23.264,0l0.694,0l0,-0.781l-0.694,0l0,0.781Zm-1.215,1.736l0,-0.608l-1.302,0l0,0.608l1.302,0Zm16.84,0l0.347,-0.608l-0.347,0l-0.26,0.347l0.26,0.26Zm-40.017,1.476c0.347,-0.217 0.521,-0.391 0.521,-0.521c0,-0.521 -0.586,-0.825 -1.736,-0.955l0,1.128l1.215,0.347Zm2.431,0.174l0,-0.694l-1.302,0l0,0.694l1.302,0Zm22.483,1.562c-0.239,-0.738 -0.347,-1.497 -0.347,-2.257c-0.13,0.13 -0.239,0.217 -0.347,0.26c-0.065,0.065 -0.087,0.152 -0.087,0.26l-0.521,0.608l-0.608,0.174l-0.174,0.347c0.217,0.304 0.347,0.499 0.347,0.608l0.434,0.174l1.302,-0.174Zm-7.378,0.955c0,0 -0.065,-0.022 -0.174,-0.087c-0.065,-0.043 -0.087,-0.087 -0.087,-0.087c-0.239,0 -0.477,-0.13 -0.694,-0.434c-0.304,0 -0.434,0.26 -0.434,0.781l0,0.347l1.389,0l0,-0.521Zm-17.361,0.174c-0.651,0.412 -0.955,0.846 -0.955,1.302l1.91,0l-0.955,-1.302Zm49.566,0l0,0.608l0.347,0l0,-0.608l-0.347,0Zm-44.792,1.736l0,1.476l1.128,0l0,-1.476l-1.128,0Zm-8.767,0.174l0,1.302l1.476,0l0,-1.302l-1.476,0Zm29.167,3.038c0,0.76 0.543,1.128 1.649,1.128l0,-1.128l-1.649,0Zm6.25,2.517c-1.28,-0.629 -2.17,-0.955 -2.691,-0.955c0,0.651 0.521,1.085 1.562,1.302c0.109,-0.109 0.282,-0.174 0.521,-0.174l0.608,-0.174Zm-6.858,1.302l0.781,-1.128l-1.128,-0.174l-0.608,0.955l0.955,0.347Zm0.608,-0.781l0.174,0.608l2.257,-0.608l-0.347,-0.521l-2.083,0.521Zm19.965,0.434l0.608,-0.781l-0.781,-0.174l-0.608,0.521l0.781,0.434Zm-13.368,0.521l-0.174,-0.694l-1.476,0.347l0.174,0.608l1.476,-0.26Zm-38.455,1.128c0.738,0 1.389,-0.109 1.91,-0.347l-0.434,-1.128c-0.998,0.521 -1.476,1.02 -1.476,1.476Zm29.688,-0.521c-0.477,-0.521 -0.911,-0.825 -1.302,-0.955c-0.13,0.412 -0.564,0.673 -1.302,0.781c0.109,0.13 0.282,0.174 0.521,0.174l0.434,0.174l0.694,0.347l0.608,-0.174l0.347,-0.347Zm-25.521,0.347l0,0.781l1.562,-0.608l-0.434,-0.694l-1.128,0.521Zm2.344,2.691c-1.172,-0.629 -1.736,-0.955 -1.736,-0.955l-0.608,-0.347l-1.91,-0.434l0.434,1.736l3.819,0Zm25.694,1.91c-0.13,-0.738 -0.499,-1.128 -1.128,-1.128c-0.13,0.13 -0.13,0.304 0,0.521c0,0 0.022,0.065 0.087,0.174c0.043,0.065 0.087,0.087 0.087,0.087l0.955,0.347Zm18.837,-0.174c0.282,0.651 0.543,1.02 0.781,1.128c0.282,-0.109 0.347,-0.434 0.174,-0.955l-0.694,0l-0.26,-0.174Zm-18.663,1.302l0.174,0c0.174,0 0.369,-0.109 0.608,-0.347l0.174,0l0.174,-0.174l-1.476,-0.434l0,1.128l0.347,-0.174Zm7.986,0.608l-0.347,-1.389l-0.608,0.26l0,1.128l0.955,0Zm-32.726,-0.174l0,-0.955l-1.91,0l0,0.955l1.91,0Zm26.128,1.91l0.955,0.347l0.347,-0.781l-0.955,-0.174l-0.347,0.608Zm-26.91,-0.26l0,1.389l1.128,0l0,-1.389l-1.128,0Zm24.566,1.389c-0.239,0 -0.434,0.087 -0.608,0.26c-0.13,0.174 -0.043,0.326 0.26,0.434l1.128,-0.174l-0.781,-0.521Zm7.986,1.649c-0.13,0.174 -0.304,0.26 -0.521,0.26l-0.434,0c0,0.13 0.26,0.564 0.781,1.302l0.781,0.955c0.521,-0.217 0.89,-0.477 1.128,-0.781c0.109,-0.109 0.304,-0.26 0.608,-0.434c0.347,-0.217 0.651,-0.456 0.955,-0.694l-1.128,0.174l-0.434,0l-0.347,0.174l-0.434,0.26c-0.239,-0.282 -0.347,-0.477 -0.347,-0.608c0,-0.217 -0.13,-0.434 -0.347,-0.608l-0.26,0Zm-4.688,0.781l-0.434,-0.521l-1.302,0.174l0.347,0.781l1.389,-0.434Zm-28.993,0.608c-0.76,0 -1.128,0.065 -1.128,0.174c-0.304,0.13 -0.434,0.326 -0.434,0.608l1.128,0.694l0.434,-0.955l0,-0.521Zm36.979,1.302l-0.608,0.174l0.174,-0.347l-1.476,0c-0.13,0.13 -0.391,0.174 -0.781,0.174c0.109,0.521 0.369,0.781 0.781,0.781l0.347,0.347c0.391,-0.347 0.608,-0.521 0.608,-0.521l1.736,0l1.476,-0.434l-0.347,-0.521l-1.562,0.347l-0.347,0Zm3.385,1.736l0.781,-0.347l-0.608,-1.215l-0.868,0.434l0.694,1.128Zm-14.497,-0.608c0.391,0.174 0.977,0.174 1.736,0c-0.347,-0.456 -0.933,-0.694 -1.736,-0.694l0,0.694Zm-17.882,0.608l0,1.128l1.302,0l0,-1.128l-1.302,0Zm27.431,1.302c0.738,0.521 1.649,0.673 2.691,0.434l0,-0.608c0,-0.521 -0.391,-0.825 -1.128,-0.955l-1.562,0.434l0,0.694Zm-5.122,0.26l0,-0.955l-0.781,0l0,0.955l0.781,0Zm3.993,0.347c-0.13,-0.217 -0.347,-0.369 -0.694,-0.434c-0.304,-0.109 -0.586,-0.217 -0.868,-0.347l-0.694,-0.174l0.694,1.302l1.562,-0.347Zm11.024,2.691c0.803,0.239 1.259,0.347 1.389,0.347c0.217,-0.109 0.304,-0.282 0.26,-0.521c-0.065,-0.282 -0.217,-0.477 -0.434,-0.608l-1.215,0.781Zm-7.205,2.604l0.781,-0.174l-1.128,-2.691l-0.781,0.26l1.128,2.604Zm-8.594,-2.604l0,0.955l1.302,0l0,-0.955l-1.302,0Zm1.128,2.604c-0.239,-0.217 -0.174,-0.651 0.174,-1.302l-1.823,0.608c0,0.239 0.217,0.347 0.694,0.347c0,0.13 0.13,0.174 0.434,0.174l0.521,0.174Zm12.587,3.125c0.282,0.239 0.543,0.347 0.781,0.347l1.562,-0.347c-1.562,-0.803 -2.409,-1.432 -2.517,-1.91l0,-0.955c0,0 0.022,-0.022 0.087,-0.087c0.043,-0.109 0.087,-0.174 0.087,-0.174l-0.174,-0.174l-1.128,0.434c0,0.13 -0.326,0.239 -0.955,0.347l-0.434,0.347l-0.521,0.434l1.302,0.174l1.128,0.174c0.282,0.521 0.543,0.998 0.781,1.389Zm-6.684,-1.562c0,-0.217 -0.391,-0.543 -1.128,-0.955l0.781,1.736l0.347,-0.781Zm2.691,3.646c1.042,-0.282 1.606,-0.477 1.736,-0.608l0.521,-0.347l0.434,-0.434l0.347,-0.174l-0.521,-1.302l-0.781,0l-0.955,-0.434c0,0.304 0.109,0.694 0.347,1.215c0,0 0.022,0.043 0.087,0.087c0.043,0.065 0.087,0.087 0.087,0.087l0,0.347c0.282,0.13 0.282,0.326 0,0.608c0,0.13 -0.152,0.239 -0.434,0.347c-0.304,0.13 -0.586,0.326 -0.868,0.608Zm-40.365,-2.865l0,1.302l1.128,0l0,-1.302l-1.128,0Zm35.417,3.819l0.781,0.347l4.167,-2.257c-0.651,0.239 -1.345,0.347 -2.083,0.347c-0.239,0.304 -0.673,0.434 -1.302,0.434c-1.042,0.239 -1.78,0.477 -2.17,0.694l0.434,0.26l0.174,0l0,0.174Zm14.67,-1.91c0,0.651 -0.087,1.02 -0.26,1.128c-0.174,0.13 -0.738,0.174 -1.649,0.174l0.434,0.781l2.431,-1.91l-0.955,-0.174Zm-48.611,1.476c1.042,-0.347 1.671,-0.651 1.91,-0.955c-0.521,-0.217 -1.172,-0.347 -1.91,-0.347l0,1.302Zm45.399,3.299l0.955,0.174l0.174,-1.128l-0.955,0l-0.174,0.955Zm-43.142,-0.608l0,1.128l1.91,0l0,-1.128l-1.91,0Zm39.497,0.347l-1.128,1.215l0.347,0.174c0.109,0 0.195,0.043 0.26,0.087c0.109,0.065 0.174,0.152 0.174,0.26l1.649,-0.347l-1.302,-1.389Zm2.257,1.215c-0.347,0.477 -0.26,0.694 0.26,0.694c0.347,0 0.564,-0.043 0.694,-0.174l-0.174,-0.174c-0.239,0 -0.499,-0.109 -0.781,-0.347Zm2.17,1.476c0,0.13 -0.217,0.174 -0.608,0.174l-0.174,0l-0.781,1.215l0,0.174l0.174,0l0.781,-1.128c0.521,-0.174 1.042,-0.174 1.562,0l0.174,-0.26l-1.128,-0.174Zm3.385,0.174c-0.412,0.304 -0.738,0.608 -0.955,0.955l-0.174,0l0.174,0.26c0.217,-0.521 0.543,-0.825 0.955,-0.955l0.174,0l-0.174,-0.26Zm-12.587,3.472c0.282,-0.109 0.543,-0.369 0.781,-0.781l-1.91,0.434l-0.347,0l-0.781,0.174c0.521,0.347 0.521,0.781 0,1.302c0.868,0 1.345,-0.195 1.476,-0.608c0.391,-0.217 0.651,-0.391 0.781,-0.521c0.109,-0.109 0.109,-0.109 0,0Z" style="fill:#fff;fill-rule:nonzero;"/></g></g></g><g><g><g><path d="M2368.603,1461.05c1.259,0 2.279,0.412 3.038,1.215c0.738,0.76 1.128,1.714 1.128,2.865l-0.521,22.656c-0.239,2.431 -1.454,3.711 -3.646,3.819l-52.431,5.469l-1.302,15.885l39.236,-2.083l0,18.663l0.781,0l0,-18.663c1.042,0 1.953,0.391 2.778,1.128c0.803,0.76 1.215,1.628 1.215,2.604l0,19.878c0,2.148 -1.085,3.429 -3.212,3.819l-41.753,5.469l-0.955,15.885l50.868,-1.562c1.15,0 2.105,0.412 2.865,1.215c0.738,0.76 1.128,1.628 1.128,2.604l0,24.045c0,2.387 -1.194,3.646 -3.559,3.819l-80.295,4.167c-1.172,0 -2.105,-0.347 -2.865,-1.042c-0.738,-0.694 -1.128,-1.671 -1.128,-2.951c0.239,-18.793 0.825,-38.368 1.736,-58.681c0.868,-18.685 2.452,-39.714 4.774,-63.108c0.347,-2.3 1.606,-3.472 3.819,-3.472l78.299,-3.646Zm-54.34,4.253l0.434,0l0,-0.608l-0.434,0l0,0.608Zm12.413,1.128c-0.13,0.13 -0.152,0.217 -0.087,0.26c0.043,0.065 0.195,0.087 0.434,0.087c-0.239,0 -0.347,-0.109 -0.347,-0.347Zm3.646,3.212c0.217,-0.217 0.347,-0.477 0.347,-0.781c0,-0.456 -0.391,-0.694 -1.128,-0.694c-0.76,0 -1.345,0.239 -1.736,0.694l-0.521,0.781c0.347,-0.217 0.521,-0.477 0.521,-0.781l0.955,-0.174c0.738,0.13 1.128,0.434 1.128,0.955l0,0.781c0,-0.217 0.13,-0.477 0.434,-0.781Zm28.559,-1.302l-0.347,0l0,0.521l0.347,0l0,-0.521Zm-54.08,1.128l3.993,0l0,-0.608l-3.993,0l0,0.608Zm13.715,-0.608l-2.691,0l0,0.26l-0.434,0c-0.586,0.239 -0.868,0.412 -0.868,0.521l1.302,0l0.174,-0.174l2.517,0l0,-0.608Zm-6.337,0.781l0.608,0l0,-0.347l-0.608,0l0,0.347Zm31.684,0l-1.562,0l0,0.781l1.562,0l0,-0.781Zm-22.743,0.781c-0.239,0 -0.347,0.326 -0.347,0.955c0,0 0.26,-0.26 0.781,-0.781c0.347,-0.347 0.195,-0.391 -0.434,-0.174Zm12.587,0.608l-0.694,0l0,0.347l0.694,0l0,-0.347Zm-30.642,3.212l0.174,0.781l0,0.347l0.781,0c0,-0.109 0.109,-0.282 0.347,-0.521c0.282,-0.282 0.434,-0.434 0.434,-0.434l-1.736,-0.174Zm23.264,2.691c-0.651,-0.282 -0.955,-0.543 -0.955,-0.781l0,-0.174l0.955,-0.955l-0.781,0.347l-0.434,0c-0.13,0 -0.217,0.043 -0.26,0.087c-0.065,0.065 -0.152,0.087 -0.26,0.087l-0.347,0c-0.651,0.304 -1.172,0.825 -1.562,1.562l0.347,0.347l2.344,0c0.109,0 0.195,-0.022 0.26,-0.087c0.043,-0.043 0.087,-0.087 0.087,-0.087l0.174,0l0.434,-0.347Zm6.424,0.521l0.26,0l0.174,0.174l0.174,-0.521l-0.608,0l0,0.347Zm-10.851,1.389l-0.347,-1.215c-1.042,0.412 -1.562,0.825 -1.562,1.215c0.391,0.13 0.651,0.13 0.781,0l1.128,0Zm8.42,1.476c0,-0.217 -0.326,-0.608 -0.955,-1.128l-0.608,1.128l1.562,0Zm7.812,0.174c0,-0.109 -0.152,-0.282 -0.434,-0.521l-0.347,-0.434c-1.042,0.412 -1.562,0.825 -1.562,1.215l2.344,-0.26Zm-12.76,0.26c-0.76,-0.391 -1.345,-0.608 -1.736,-0.608c-0.651,0 -0.955,0.326 -0.955,0.955l0.955,0.608l0.608,0.174l0.174,0c0.217,0 0.347,-0.195 0.347,-0.608l0.608,-0.521Zm7.378,1.476c0.282,0.304 0.608,0.304 0.955,0c0,-0.738 -0.239,-1.172 -0.694,-1.302l-1.562,0.347l0.347,0.955l0.955,0Zm-40.017,-0.521l-0.174,0l-0.347,0.174l0.347,0.174l0.174,-0.347Zm35.503,1.649c0.347,0 0.521,-0.217 0.521,-0.694c0,-0.521 -0.326,-0.781 -0.955,-0.781l-0.347,0.174l-0.174,0l-0.26,0.174c-0.239,0.304 -0.347,0.564 -0.347,0.781l0.174,0.347l1.389,0Zm28.385,-1.302l-0.434,0l0,0.955l0.434,0l0,-0.955Zm-28.819,9.375l-0.347,0l0,0.521l0.347,0l0,-0.521Zm-15.451,0.521c-0.239,0 -0.347,0.217 -0.347,0.608l0.347,0l0.26,-0.174c-0.174,0 -0.26,-0.13 -0.26,-0.434Zm-1.128,9.375c-0.239,0.239 -0.347,0.347 -0.347,0.347l0.955,0.174c0.109,-0.109 0.109,-0.434 0,-0.955c-0.13,0 -0.326,0.152 -0.608,0.434Zm0.955,3.819l0.174,-0.26l-0.955,-0.174l0,0.174l0.781,0.26Zm1.128,7.639l0.955,0l0,-0.955l-0.955,0l0,0.955Zm0.608,2.431c-0.412,0 -0.673,-0.043 -0.781,-0.174l-0.781,-0.174l-0.174,0.174c-0.347,0.13 -0.521,0.391 -0.521,0.781c0,0.651 0.477,0.955 1.476,0.955c0.391,0 0.651,-0.087 0.781,-0.26l0,-1.302Zm14.497,1.128l0.174,0l0,-0.174l-0.174,0.174Zm27.257,2.517c0.347,0 0.651,0.065 0.955,0.174l0.955,0.174l0.781,-0.955l0,-1.476c-0.174,-0.174 -0.434,-0.304 -0.781,-0.434c-0.304,-0.109 -0.564,-0.174 -0.781,-0.174l-1.128,0.781l0,1.91Zm-26.302,-2.344l0.347,-0.174l-0.347,0l0,0.174Zm-4.948,1.91l0.955,0.781c0.217,-0.109 0.369,-0.304 0.434,-0.608c0.043,-0.347 -0.043,-0.564 -0.26,-0.694l-1.128,0.521Zm4.948,0.26l0.781,0.347l0.347,-1.128l-0.781,0l-0.347,0.781Zm-11.285,1.302c0.738,-0.217 0.738,-0.608 0,-1.128l0,1.128Zm-2.865,1.128l0.781,0.781l0.955,0.174l0.174,-0.174l0.434,0l0,-0.955c-0.521,0 -0.933,-0.109 -1.215,-0.347l-0.347,0.174l-0.174,0.174l-0.608,0.174Zm9.201,-0.174l0.347,0.781l1.302,0l-0.521,-0.434l-0.781,-0.521l-0.347,0.174Zm-12.587,0.608c-0.13,-0.174 -0.391,-0.304 -0.781,-0.434c-0.412,-0.109 -0.738,-0.174 -0.955,-0.174c0,0.239 0.195,0.499 0.608,0.781c0.217,0.239 0.781,0.347 1.649,0.347l0.608,0l0,-0.521l-1.128,0Zm12.153,2.257l1.562,0c0.217,-0.109 0.347,-0.304 0.347,-0.608l0,-0.694l-1.476,0l-0.174,0.694l-0.26,0.608Zm-13.542,1.128c0,0.13 0.022,0.217 0.087,0.26c0.109,0.065 0.217,0.043 0.347,-0.087l0.521,-0.174l-0.347,-0.174l-0.174,0c-0.304,0 -0.434,0.065 -0.434,0.174Zm-2.257,3.646c0.629,0 1.063,-0.13 1.302,-0.434c-0.239,0 -0.477,-0.109 -0.694,-0.347l-0.26,-0.174l-0.955,0c-0.347,0.347 -0.521,0.738 -0.521,1.128l1.128,-0.174Zm2.691,0.955c-0.651,0 -1.541,-0.13 -2.691,-0.434l-0.608,0.434l0.608,0.781c0.217,-0.629 0.543,-0.825 0.955,-0.608c0.738,0 1.324,-0.043 1.736,-0.174Zm-8.247,0c-0.347,0.13 -0.521,0.391 -0.521,0.781l0.521,0.347l0.781,-0.174c0,-0.282 0.195,-0.477 0.608,-0.608l-0.608,-0.174l-0.781,-0.174Zm51.91,5.122l0.694,-0.955l0.434,-0.781l-0.434,-1.302c-0.13,-0.109 -0.347,-0.694 -0.694,-1.736l0,4.774Zm-43.837,-1.736c0,-0.217 0.369,-0.868 1.128,-1.91l-0.781,-0.174l-0.781,0c-0.347,0 -0.738,0.152 -1.128,0.434l-1.562,0.521c0.391,0.13 0.738,0.26 1.042,0.434c0.347,0.13 0.564,0.239 0.694,0.347c-0.239,0.651 -0.304,1.085 -0.174,1.302l1.736,-0.347l-0.174,-0.608Zm-5.208,-0.347c0.391,0.239 0.716,0.239 0.955,0l-0.174,-0.174l-0.347,-0.26l-0.434,0.26l0,0.174Zm6.163,-0.174c0.109,0.347 0.26,0.608 0.434,0.781c0.174,0.13 0.456,0.174 0.868,0.174c0.109,0 0.543,-0.13 1.302,-0.434l-0.521,-0.521l-2.083,0Zm-5.729,0.521c-0.76,0.412 -0.955,0.738 -0.608,0.955l0.174,0.781c0.521,0 0.89,-0.109 1.128,-0.347c0,-0.521 -0.239,-0.977 -0.694,-1.389Zm8.594,1.91l-0.955,0c-0.412,0 -0.608,0.152 -0.608,0.434c0,0.239 -0.13,0.347 -0.347,0.347c0,-0.629 -0.217,-0.998 -0.608,-1.128l-1.128,0c0,0.239 0.109,0.347 0.347,0.347l0.608,0.608l-1.389,0.521l-0.955,0.781c0.174,0.13 0.347,0.174 0.521,0.174c0.174,0 0.304,0.087 0.434,0.26l1.562,0c0.521,0 1.345,-0.26 2.517,-0.781l0,-1.562Zm-6.944,0.781c-0.347,0 -0.673,0.239 -0.955,0.694c-0.239,0.412 -0.347,0.825 -0.347,1.215l0,0.955c0.629,0.521 1.215,0.781 1.736,0.781l0.521,0l0.608,-0.434l0,-2.431l-0.781,-0.608l-0.781,-0.174Zm-3.038,0.955c-0.13,0 -0.326,0.13 -0.608,0.347c-0.239,0.174 -0.347,0.326 -0.347,0.434c0.521,0.13 0.977,0.13 1.389,0l-0.434,-0.781Zm42.361,1.128l2.257,0l0,-0.521l-2.257,0l0,0.521Zm-33.333,0.608c0.217,0 0.347,-0.195 0.347,-0.608l-1.128,0l-0.434,0.608l1.215,0Zm-10.503,0.174c-0.651,0.13 -0.955,0.391 -0.955,0.781l0.955,0c0.109,-0.109 0.109,-0.369 0,-0.781Zm8.767,1.128c0.217,0.13 0.608,0.174 1.128,0.174c0,-0.347 -0.26,-0.651 -0.781,-0.955l-0.347,0.781Zm-5.556,0c-0.521,0.521 -0.781,0.911 -0.781,1.128l1.736,0.26l0.347,-0.781c-0.239,-0.282 -0.347,-0.477 -0.347,-0.608l-0.955,0Zm3.212,1.562l-0.174,-1.128c-0.651,0 -0.955,0.239 -0.955,0.694l0,0.781l1.128,-0.347Zm3.646,0.347c0,-0.217 -0.13,-0.347 -0.347,-0.347l-0.434,-0.434c-0.239,0.174 -0.781,0.26 -1.649,0.26l-0.781,0.174l-0.434,0.174l0.955,0.781c0.803,-0.282 1.259,-0.434 1.389,-0.434l1.302,-0.174Zm-3.038,1.91l0.608,-0.347l-1.562,-0.434l0,0.781l0.955,0Zm-1.302,0c-0.521,-0.217 -1.042,-0.347 -1.562,-0.347l0.347,0.694c0.521,0 0.911,-0.109 1.215,-0.347Zm-2.344,1.128c0,0.13 -0.13,0.326 -0.347,0.608l2.083,0.174c0.217,0 0.347,-0.195 0.347,-0.608l-2.083,-0.174Zm-1.91,1.389c0.282,0.347 0.651,0.521 1.128,0.521l-0.694,-1.476l-1.389,0.174l0.955,0.781Zm3.299,1.649c-0.304,-0.456 -0.391,-0.781 -0.26,-0.955c0.174,-0.347 0.174,-0.564 0,-0.694l-0.521,0.521c-0.13,0 -0.174,0.152 -0.174,0.434l0,0.694l0.955,0Zm3.819,-0.347c0.629,0 0.955,-0.26 0.955,-0.781l-0.955,0l0,0.781Zm-10.156,-0.608c-0.347,0.174 -0.521,0.391 -0.521,0.608l1.128,0.347c0,-0.217 0.043,-0.391 0.174,-0.521l0.174,-0.174l-0.955,-0.26Zm5.382,1.389l0,0.781l0.521,0l0,-0.781l-0.521,0Zm0.955,0.347c0,0.304 0.043,0.434 0.174,0.434l0.174,0.347l1.302,-0.347c-0.13,0 -0.174,-0.13 -0.174,-0.434l0,-0.174c-0.239,0 -0.434,0.043 -0.608,0.087c-0.13,0.065 -0.239,0.087 -0.347,0.087l-0.521,0Zm3.038,1.736l-1.128,0l0,0.781l1.128,0l0,-0.781Zm-10.851,1.128c-0.304,0.412 -0.239,0.781 0.174,1.128c0.629,-0.217 0.955,-0.608 0.955,-1.128l-1.128,0Zm3.993,1.302l0.347,0.26c0.282,0 0.477,-0.087 0.608,-0.26l-0.174,-0.955l-0.434,0c0,0 -0.043,0.065 -0.087,0.174c-0.065,0.065 -0.087,0.087 -0.087,0.087l-0.347,0l0,0.694l0.174,0Zm-3.993,3.125c0.456,0 0.781,-0.087 0.955,-0.26c0,-0.109 0.022,-0.195 0.087,-0.26c0.043,-0.043 0.13,-0.13 0.26,-0.26l-0.608,-0.434l-0.955,0.434l0.26,0.781Zm5.469,-0.434l-0.955,0l0,0.174l0.781,0.26l0.174,-0.434Zm-3.038,2.344c0.282,0.239 0.608,0.347 0.955,0.347l0,-1.128c-0.347,0 -0.673,0.26 -0.955,0.781Zm16.753,7.205l1.562,0l0,-0.347l-1.562,0l0,0.347Zm7.639,0.174c-0.651,0.412 -0.955,0.608 -0.955,0.608c0.391,0.13 0.608,0.391 0.608,0.781l0.955,0c0.217,-0.282 0.347,-0.477 0.347,-0.608l0.174,-0.347l-0.347,-0.955c0,0.13 -0.065,0.239 -0.174,0.347c-0.13,0.13 -0.326,0.174 -0.608,0.174Zm10.851,0.781l0.434,0l0.174,-0.347l-0.174,-0.26l-0.434,0.608Zm-16.146,-0.347l-1.128,0l0,0.347l1.128,0l0,-0.347Zm8.767,1.476l0.781,-0.174c0,-0.109 -0.087,-0.174 -0.26,-0.174c0,0 -0.13,-0.13 -0.347,-0.434l-0.174,0.781Zm-11.111,0.434l0.434,0.347c0.629,-0.217 0.738,-0.477 0.347,-0.781c-0.239,0 -0.347,0.065 -0.347,0.174l-0.434,0l0,0.26Zm6.684,0.347c-0.239,-0.217 -0.564,-0.347 -0.955,-0.347l0.434,1.302l0.174,-0.174c0.109,0 0.174,-0.13 0.174,-0.434c0.109,0 0.174,-0.109 0.174,-0.347Zm3.646,0.347c-0.651,0.304 -0.955,0.608 -0.955,0.955l0.955,0c0,-0.217 0.043,-0.391 0.174,-0.521l-0.174,-0.434Zm-27.083,2.865l0,1.128c0,0 0.13,-0.109 0.434,-0.347l0.694,-0.781l-1.128,0Zm3.819,0c0,0.412 0.304,0.608 0.955,0.608l0,-0.434c0,-0.109 0.043,-0.174 0.174,-0.174l-1.128,0Zm9.896,0.608l0.434,0.781l0.347,0l-0.608,-0.781l-0.174,0Zm18.316,0.521c0,0.651 0.304,0.955 0.955,0.955l0.347,-0.521l0.26,-0.434l-1.562,0Zm-6.684,0.434l-0.347,0l-0.174,0.521l0.521,0l0,-0.521Zm-6.25,1.302l0.347,-0.347l-0.347,-0.434l-0.434,0l0.434,0.781Zm-16.406,1.91l-1.562,0l0,0.955l1.562,0l0,-0.955Zm-17.535,4.167c0,-0.564 0.174,-0.955 0.521,-1.128l-2.431,0l0,1.128l1.91,0Zm69.358,-0.347l2.344,0.347l0,-0.521l-1.91,-0.608l-0.434,0.781Zm-56.944,-0.347l-2.17,0l0,0.694l2.17,0l0,-0.694Zm12.587,0.694l0,0.955l1.476,0l0,-0.955l-1.476,0Zm10.417,0.781c-0.13,0.304 -0.174,0.825 -0.174,1.562l0.174,0.955l2.691,0l0.347,-0.781c0.174,-0.109 0.26,-0.369 0.26,-0.781l-0.955,-0.955l-2.344,0Zm-29.34,0.955l2.083,0l0,-0.781l-2.083,0l0,0.781Zm8.42,3.993c0.347,-0.109 0.629,-0.456 0.868,-1.042c0.282,-0.564 0.434,-1.172 0.434,-1.823c0,-0.738 -0.174,-1.302 -0.521,-1.649c-0.304,0 -0.825,0.174 -1.562,0.521c0.521,1.172 0.781,2.496 0.781,3.993Zm-19.097,-2.604c0.109,0.347 0.456,0.499 1.042,0.434c0.564,-0.043 0.998,-0.195 1.302,-0.434l-2.344,0Zm7.986,0.694l-0.347,0l0,-0.694l-1.736,0l0,0.694l1.736,0l0,0.781l0.347,0l0,-0.781Zm19.878,0.434c-1.042,0 -1.736,0.065 -2.083,0.174l-1.215,0.347l-0.955,0.26c0.282,0.13 0.543,0.347 0.781,0.694c0.282,0.304 0.477,0.564 0.608,0.781c0.629,-0.347 1.259,-0.825 1.91,-1.476l0.955,-0.781Zm-13.021,1.736c0.282,-0.391 0.434,-0.803 0.434,-1.215l-3.212,0l0,1.736c0.977,0 1.845,0.152 2.604,0.434l0.174,-0.955Zm34.896,-0.26l1.389,0l0,-0.347l-1.389,0l0,0.347Zm24.219,2.517c0,0.412 -0.13,0.608 -0.347,0.608c0.347,0 0.716,-0.195 1.128,-0.608l-0.781,0Zm-61.372,0.347l-1.476,0l0,0.781l1.476,0l0,-0.781Z" style="fill:#fff;fill-rule:nonzero;"/></g></g></g><g><g><g><path d="M2494.049,1468.168c0.521,1.107 0.694,2.127 0.521,3.038l-26.476,119.705c-0.347,2.04 -1.562,3.038 -3.646,3.038l-25.694,0c-2.561,0 -3.819,-1.215 -3.819,-3.646l-0.781,-9.288l0.174,0c0,0.239 0.13,0.347 0.434,0.347c0.347,-0.391 0.282,-0.781 -0.174,-1.128l-0.434,0.347l-0.781,-7.986c0.282,-0.109 0.803,-0.174 1.562,-0.174l1.91,-0.174l-3.472,-0.781l-0.521,-6.858l0.174,-0.174l-0.174,0l-0.955,-13.368l-7.986,32.205l-1.91,7.639c-0.412,2.04 -1.628,3.038 -3.646,3.038l-27.604,0c-2.431,0 -3.711,-1.215 -3.819,-3.646l-4.253,-58.16l-4.167,-62.066c0,-1.259 0.326,-2.214 0.955,-2.865c0.651,-0.911 1.519,-1.389 2.691,-1.389l22.309,-1.128l0.347,0c2.127,0 3.342,1.172 3.646,3.472l3.385,41.927l10.503,-43.663c0.391,-1.91 1.606,-2.908 3.646,-3.038l13.715,-0.608c3.689,-0.217 6.641,0.825 8.854,3.125c2.192,2.257 3.559,5.36 4.08,9.288l0,0.174l3.299,28.819l8.333,-39.497c0.109,-0.977 0.629,-1.78 1.562,-2.431c0.977,-0.629 1.997,-0.825 3.038,-0.608l22.656,4.948c1.042,0.239 1.866,0.76 2.517,1.562Zm-91.927,14.844c0.629,0 0.955,-0.26 0.955,-0.781l-0.955,-0.174l-0.521,0.608l0.521,0.347Zm-7.205,40.972c-0.13,-0.391 -0.434,-0.608 -0.955,-0.608l-0.608,0.434l0.781,0.174l0.781,0Zm7.031,15.104l-1.736,-0.26l0.781,0.434c0,0 0.022,0.043 0.087,0.087c0.043,0.065 0.087,0.087 0.087,0.087l0.434,0.347l0.347,-0.694Zm30.903,2.604c1.15,0 2.04,-0.043 2.691,-0.174c-0.174,0 -0.304,-0.022 -0.347,-0.087c-0.065,-0.043 -0.152,-0.13 -0.26,-0.26l-0.608,-0.174c-0.651,0 -0.955,0.065 -0.955,0.174c0,0.13 -0.174,0.304 -0.521,0.521Zm5.903,-0.174c-0.239,0.13 -0.608,0.174 -1.128,0.174l0.174,0.434c0.391,0.347 0.608,0.521 0.608,0.521l0.347,-0.174l0.347,0c0,-0.521 -0.13,-0.825 -0.347,-0.955Zm3.646,0.955l1.649,0.174l0.26,-0.347l-1.91,-0.174l0,0.347Zm11.198,1.562c-0.651,0 -1.28,0.239 -1.91,0.694l1.389,0c0.456,0 0.781,0.087 0.955,0.26c0,-0.391 0.043,-0.608 0.174,-0.608c0,-0.217 -0.217,-0.347 -0.608,-0.347Zm-7.205,0.694l1.128,0.26l0,-0.434l-1.128,-0.174l0,0.347Zm9.549,1.215l1.302,-0.26c-0.412,-0.456 -0.846,-0.89 -1.302,-1.302l0,1.562Zm10.417,1.128c-0.998,-1.042 -1.736,-1.671 -2.257,-1.91c-0.239,0 -0.347,0.174 -0.347,0.521l-0.26,0.608c-0.347,-0.629 -0.846,-0.955 -1.476,-0.955c-0.13,0.13 -0.174,0.326 -0.174,0.608c0,0.13 0.043,0.174 0.174,0.174c0,0.239 0.109,0.347 0.347,0.347c0,0.13 0.13,0.326 0.434,0.608c0.347,0.651 1.085,0.76 2.257,0.347l1.302,-0.347Zm-14.844,-0.174l0.347,0.174l0.781,0.174c0.521,0.13 1.042,-0.087 1.562,-0.608c-0.412,-0.629 -0.608,-1.063 -0.608,-1.302l-0.347,0.174c-0.13,0 -0.239,0.043 -0.347,0.087c-0.065,0.065 -0.152,0.087 -0.26,0.087l-0.955,0.26l-0.174,0.955Zm-12.76,0.521c0.217,-0.347 0.174,-0.521 -0.174,-0.521c-0.412,-0.174 -0.412,-0.043 0,0.347l0.174,0.174Zm9.896,1.562c0.109,0 0.174,0.065 0.174,0.174c0,0.239 -0.326,0.347 -0.955,0.347c-0.477,0 -0.694,0.087 -0.694,0.26c2.127,0.651 3.407,1.085 3.819,1.302l0.521,0.781c0,0.239 0.109,0.477 0.347,0.694l1.215,0.26l0.955,-0.434c-0.174,-0.629 -0.651,-1.085 -1.389,-1.389c-0.76,-0.347 -1.454,-0.521 -2.083,-0.521c0.391,-0.738 0.391,-1.128 0,-1.128c-0.521,0 -0.781,-0.26 -0.781,-0.781c-0.13,-0.109 -0.13,-0.347 0,-0.694c0.174,-0.174 0.109,-0.369 -0.174,-0.608l-1.128,-0.174l-0.608,1.476c0.282,0.304 0.543,0.434 0.781,0.434Zm6.858,-1.91c-0.347,0 -0.738,0.174 -1.128,0.521c-0.412,0.412 -0.998,0.608 -1.736,0.608c0.521,0.239 0.977,0.564 1.389,0.955c0.347,0.412 0.738,0.651 1.215,0.694c0.456,0.065 0.868,0.043 1.215,-0.087c0.109,-0.174 0.369,-0.26 0.781,-0.26c-0.521,-1.085 -1.107,-1.91 -1.736,-2.431Zm-10.851,4.774l0.608,0.174l0.347,-0.781l-0.347,-0.174l-0.608,0.781Zm-5.122,-0.26l-0.608,-0.347l-0.174,0.174l0.347,0.434l0.434,-0.26Zm10.677,3.646c0.738,0.521 1.562,0.586 2.431,0.174c0.738,-0.456 1.324,-0.694 1.736,-0.694l-0.781,-0.781c-0.651,0 -1.28,0.174 -1.91,0.521l-1.476,0.781Zm7.812,-0.781c-0.304,0 -0.608,-0.174 -0.955,-0.521c-0.412,0.347 -1.107,0.738 -2.083,1.128c0.217,0.651 0.543,1.02 0.955,1.128c0.347,0.412 0.26,0.868 -0.26,1.389c0.803,0 1.389,0.326 1.736,0.955l0,0.347c-0.239,0.239 -0.673,0.347 -1.302,0.347c0.738,0.521 1.324,0.846 1.736,0.955l1.302,0.955c0.629,-0.629 0.955,-0.998 0.955,-1.128c0.109,0.304 0.26,0.586 0.434,0.868c0.217,0.304 0.347,0.586 0.347,0.868c0,-0.391 0.109,-0.651 0.347,-0.781c0.217,-0.109 0.347,-0.282 0.347,-0.521c1.042,0 1.823,-0.087 2.344,-0.26c-0.13,0 -0.326,-0.217 -0.608,-0.694c-0.13,-0.174 -0.174,-0.304 -0.174,-0.434c0,-0.109 -0.13,-0.217 -0.347,-0.347c-0.521,-0.282 -1.172,-0.543 -1.91,-0.781l-2.083,-0.608c0,0.174 -0.13,0.326 -0.347,0.434c-0.174,0.13 -0.391,0.174 -0.608,0.174c0,-0.217 -0.152,-0.347 -0.434,-0.347c-0.13,0.13 -0.239,0.043 -0.347,-0.26c0.521,-0.868 1.215,-1.606 2.083,-2.257l-1.128,-0.608Zm-21.007,0.434l0,-0.434l-0.955,-0.174l0,0.434l0.955,0.174Zm22.309,0.521l1.128,0l0.26,-0.347l-1.215,0l-0.174,0.347Zm-13.368,0.608l0.955,-0.174l-0.174,-0.434l-0.781,0.26l0,0.347Zm16.059,0.347c-0.304,0.174 -0.434,0.391 -0.434,0.608l0.608,0.608l1.562,0.174l0.955,-0.434l0,-1.476l-1.91,-0.174c-0.174,0.347 -0.434,0.586 -0.781,0.694Zm-12.24,0.955c-0.13,-0.217 -0.499,-0.456 -1.128,-0.694c-0.868,-0.282 -1.302,-0.434 -1.302,-0.434c0,0.412 -0.217,0.781 -0.608,1.128c-0.347,0.412 -0.521,0.673 -0.521,0.781c0.347,0 0.651,-0.043 0.955,-0.174c0.347,0 0.651,-0.043 0.955,-0.174l1.649,-0.434Zm-8.333,-1.128c-0.651,0.521 -0.651,1.215 0,2.083c0.629,0 1.389,-0.174 2.257,-0.521l-0.781,-0.174c-0.13,-0.282 -0.347,-0.217 -0.694,0.174c-0.174,-0.391 -0.26,-0.608 -0.26,-0.608c-0.239,0 -0.152,-0.26 0.26,-0.781c0,0 -0.065,-0.022 -0.174,-0.087c-0.065,-0.043 -0.087,-0.087 -0.087,-0.087l-0.521,0Zm24.392,2.691l0.347,-0.174c-1.28,0.651 -1.91,1.085 -1.91,1.302c0,0.304 0.13,0.434 0.434,0.434c0.109,0 0.282,0.13 0.521,0.347l0.608,0c0.347,-0.109 0.391,-0.434 0.174,-0.955l-0.174,-0.955Zm-24.566,0c0,0.412 0.043,0.608 0.174,0.608l0,0.347c0.347,0 0.608,-0.043 0.781,-0.174l0.694,-0.434c-0.347,0 -0.586,-0.043 -0.694,-0.174c-0.304,-0.109 -0.608,-0.174 -0.955,-0.174Zm3.733,1.562l0.26,-0.434l-1.562,-0.174l0,0.347l1.302,0.26Zm2.344,-0.608l-0.608,0.608l1.736,0.174c0,-0.282 0.195,-0.477 0.608,-0.608l-1.736,-0.174Zm5.122,1.302c0,-0.456 -0.13,-0.694 -0.347,-0.694c-0.412,0 -0.564,0.13 -0.434,0.347l0.781,0.347Zm-14.844,0.434l1.128,0.174c0,-0.391 -0.13,-0.608 -0.347,-0.608l-0.781,-0.521l0,0.955Zm26.649,2.604c0.282,-0.456 0.911,-0.955 1.91,-1.476l-0.955,0c-0.521,0 -0.846,-0.26 -0.955,-0.781c-0.239,-0.109 -0.608,-0.434 -1.128,-0.955l-0.608,1.91c0.629,0.239 1.215,0.673 1.736,1.302Zm-23.611,-2.431c0.738,0.868 1.389,1.259 1.91,1.128l0,-0.174c0,-0.109 0.043,-0.174 0.174,-0.174l-0.521,-1.215l-1.215,-0.174l-0.347,0.608Zm5.122,0.174l0.608,0.174l0,-0.955l-0.434,0l-0.174,0.781Zm12.76,-0.347l-1.128,0l0,0.347l0.955,0l0.174,-0.347Zm-0.521,1.91l0,0.955l1.302,0.174l0.955,0c0.109,-0.109 0.304,-0.174 0.608,-0.174c0,-0.282 0.043,-0.434 0.174,-0.434l0.174,-0.347c-0.347,-0.391 -0.521,-0.911 -0.521,-1.562c-0.651,0.76 -1.107,1.128 -1.389,1.128l-0.521,0l-0.781,0.26Zm-11.111,-0.26c-0.868,0.651 -1.302,1.172 -1.302,1.562c0,0.412 0.369,0.933 1.128,1.562c0.738,0.651 1.389,1.02 1.91,1.128c0,-0.282 0.043,-0.434 0.174,-0.434c0,-0.109 0.087,-0.174 0.26,-0.174l-0.955,-0.347c-0.174,0 -0.391,-0.13 -0.608,-0.434l0,-1.128l0.174,0l0.955,0.174c0,0 0.521,0.521 1.562,1.562c0,-0.109 0.304,0 0.955,0.347c0.456,0.304 0.694,0.586 0.694,0.868c0,0.239 -0.174,0.521 -0.521,0.868c-0.239,0.412 -0.608,0.825 -1.128,1.215c-0.521,0.347 -1.042,0.651 -1.562,0.868c-0.239,0.304 -0.499,0.434 -0.781,0.434c0.911,0 1.562,0.174 1.91,0.521c0.391,0.521 0.477,1.042 0.26,1.562c0.629,0 1.063,-0.043 1.302,-0.174l0,-1.215l0.955,-0.521l0.955,-0.608c-0.521,-0.456 -0.781,-0.955 -0.781,-1.476c0.521,-0.282 0.89,-0.543 1.128,-0.781c0.391,-0.109 0.694,-0.217 0.868,-0.347c0.174,-0.174 0.347,-0.26 0.521,-0.26c-0.825,0 -1.541,-0.174 -2.17,-0.521c-0.651,-0.391 -1.02,-0.651 -1.128,-0.781l0.174,-0.781c0,-0.347 0.087,-0.521 0.26,-0.521c0,0 0.022,-0.022 0.087,-0.087c0.043,-0.109 0.087,-0.174 0.087,-0.174c0.109,0 0.174,-0.043 0.174,-0.174c1.389,0 2.279,-0.304 2.691,-0.955l-0.781,-0.174l-1.91,-0.347c0,0.998 -0.391,1.432 -1.128,1.302l-0.608,-0.608c0,-0.347 0.304,-0.716 0.955,-1.128l-0.347,0l-0.174,-0.174c-0.304,0 -0.434,-0.043 -0.434,-0.174c-0.239,0.239 -0.608,0.347 -1.128,0.347l-1.128,0.608c0.629,0.651 0.955,0.955 0.955,0.955l-0.781,0.347l-0.781,-0.174c-0.13,0 -0.304,-0.109 -0.521,-0.347l0,-0.608l-0.434,-0.608Zm16.406,4.253c0,-0.391 0.022,-0.738 0.087,-1.042c0.043,-0.347 0.022,-0.629 -0.087,-0.868l-0.174,-0.608c-0.76,0 -1.345,0.152 -1.736,0.434l-0.174,1.128l0.347,0l0.26,0.174c-1.28,-0.391 -1.866,-0.521 -1.736,-0.347c-0.521,-0.174 -1.042,-0.174 -1.562,0c0.391,0.347 0.391,0.521 0,0.521c-0.239,0.304 -0.347,0.564 -0.347,0.781l-0.174,0.781c0.977,-0.391 1.997,-0.608 3.038,-0.608l2.257,-0.347Zm-23.785,0.347l0.521,0.174l0.434,-2.604l-0.608,0l-0.347,2.431Zm26.302,-1.476c-0.13,-0.391 -0.326,-0.608 -0.608,-0.608c-0.239,0 -0.499,0.13 -0.781,0.347l1.389,0.26Zm-28.993,2.604c0.391,-0.217 0.391,-0.543 0,-0.955l0,0.955Zm11.458,0l-1.736,-0.521l-0.347,0.347l2.083,0.174Zm-7.465,0.955c1.15,0.412 1.78,0.781 1.91,1.128c-0.13,0.174 -0.174,0.499 -0.174,0.955c0,0.825 0.564,1.128 1.736,0.955c-0.825,-0.738 -1.215,-1.432 -1.215,-2.083l0.434,-0.694c0.217,-0.282 0.347,-0.477 0.347,-0.608c-2.04,0.239 -3.038,0.347 -3.038,0.347Zm19.878,5.382c0.347,0 0.629,0.065 0.868,0.174c0,0 -0.043,-0.022 -0.087,-0.087c-0.065,-0.043 -0.087,-0.087 -0.087,-0.087c0,0 0.521,-0.521 1.562,-1.562c-1.28,-0.738 -1.975,-1.172 -2.083,-1.302c-0.651,-0.629 -1.28,-1.15 -1.91,-1.562l1.91,-0.174c0,-0.217 -0.152,-0.391 -0.434,-0.521c-0.347,-0.629 -1.107,-0.629 -2.257,0c-0.412,0.347 -0.738,0.477 -0.955,0.347l1.736,1.476c0.629,0.825 1.259,1.389 1.91,1.736c0,0.412 -0.304,0.781 -0.868,1.128c-0.586,0.304 -1.194,0.499 -1.823,0.608c-0.76,0.239 -1.345,0.347 -1.736,0.347c-0.651,0.304 -0.955,0.564 -0.955,0.781l1.128,-0.347c0.174,-0.109 0.369,-0.174 0.608,-0.174c0.217,0 0.543,-0.13 0.955,-0.434c0.738,-0.217 1.584,-0.347 2.517,-0.347Zm4.34,-4.253c0.217,-0.217 0.022,-0.391 -0.608,-0.521c-0.477,-0.109 -0.846,0 -1.128,0.347l0.608,0.608l1.128,-0.434Zm-23.611,0.26l-1.128,-0.608c-0.412,0.521 -0.499,0.955 -0.26,1.302c0,0.651 -0.326,0.955 -0.955,0.955c0.521,0 0.911,-0.043 1.215,-0.174l1.128,-0.174l0,-1.302Zm21.875,0.521l-0.955,-0.174l0,0.347l0.955,0.26l0,-0.434Zm-13.889,2.691l0,-0.608l-0.781,0l-0.174,0.434l0.955,0.174Zm-1.128,1.302c0.217,0.304 0.564,0.586 1.042,0.868c0.456,0.239 0.868,0.412 1.215,0.521c0.109,-0.521 0.391,-0.825 0.868,-0.955c0.456,-0.109 0.911,-0.195 1.389,-0.26c0.521,-0.109 0.911,-0.174 1.215,-0.174l0,-0.521c-0.174,-0.109 -0.26,-0.304 -0.26,-0.608l-1.476,-0.174c-0.412,0.13 -0.608,0.391 -0.608,0.781c0,0.239 -0.174,0.499 -0.521,0.781c-0.521,-0.521 -0.998,-0.781 -1.389,-0.781l-0.694,0l-0.781,0.521Zm-1.562,0.434l1.128,0.781l0.434,-0.434l-1.128,-0.521l-0.434,0.174Zm11.806,3.212c-0.13,0.651 0.282,1.02 1.215,1.128c0.456,-0.629 0.89,-0.955 1.302,-0.955c-0.412,-0.347 -0.608,-0.521 -0.608,-0.521l-0.521,-0.608l0.955,-0.781l-1.562,-0.347c-0.13,-0.109 -0.76,-0.304 -1.91,-0.608l-0.521,0.955c0.629,0 1.324,0.152 2.083,0.434l-0.434,1.302Zm-6.424,-1.476c-0.304,0.13 -0.434,0.347 -0.434,0.694c1.671,0.304 2.821,0.391 3.472,0.26l-1.128,-0.955c-0.651,-0.282 -1.042,-0.543 -1.215,-0.781c-0.239,0.13 -0.477,0.391 -0.694,0.781Zm9.462,-0.26l1.736,0.26l0.174,-0.608l-1.91,-0.174l0,0.521Zm-23.177,0.955l-0.26,-1.302l-0.521,0.174c-0.304,0 -0.564,0.152 -0.781,0.434l0.347,0.347l0,0.174l1.215,0.174Zm3.819,0.434l0.521,-0.781l-0.521,-0.174l-0.608,0.521l0.608,0.434Zm4.514,1.302c0.911,0.239 1.562,0.239 1.91,0l0.781,0c-0.868,-0.217 -1.28,-0.564 -1.215,-1.042c0.043,-0.456 0.087,-0.738 0.087,-0.868c-0.933,0 -1.389,0.217 -1.389,0.608l-0.174,1.302Zm-7.205,-0.955c-0.13,0 -0.174,0.043 -0.174,0.087c0,0.065 0.043,0.087 0.174,0.087c0,0 0.022,0.043 0.087,0.087c0.043,0.065 0.087,0.087 0.087,0.087l0,-0.174l-0.174,-0.174Zm16.58,0c0,0.412 -0.326,1.042 -0.955,1.91l1.302,0c0.629,-0.629 0.998,-1.063 1.128,-1.302c-0.239,0 -0.477,-0.13 -0.694,-0.434c-0.174,-0.109 -0.434,-0.174 -0.781,-0.174Zm8.333,0.347c-0.868,0.412 -1.302,0.738 -1.302,0.955l-0.781,1.215l-0.347,-0.26c0,-0.217 -0.217,-0.347 -0.608,-0.347c-0.347,0 -0.586,0.13 -0.694,0.347l-0.26,0.608c0.174,0.239 0.629,0.477 1.389,0.694c0.738,0.174 1.497,0.26 2.257,0.26l0.347,-3.472Zm-18.056,1.736c0.347,-0.217 0.521,-0.477 0.521,-0.781c-0.651,0.521 -1.194,0.521 -1.649,0c-0.304,-0.109 -0.499,-0.217 -0.608,-0.347c-0.13,-0.109 -0.326,-0.174 -0.608,-0.174c0.174,0.13 0.304,0.326 0.434,0.608c0.109,0.239 0.282,0.412 0.521,0.521c0.391,0.651 0.716,0.955 0.955,0.955l0.434,-0.781Zm-5.382,0.955c0,-0.521 0.13,-0.781 0.434,-0.781c0,-0.109 -0.152,-0.174 -0.434,-0.174l-0.347,-0.174c-0.13,0 -0.326,-0.109 -0.608,-0.347l-1.302,0.955c0,0 -0.043,-0.022 -0.087,-0.087c-0.065,-0.109 -0.087,-0.174 -0.087,-0.174c0.977,1.042 1.671,1.519 2.083,1.389c0.217,-0.282 0.347,-0.477 0.347,-0.608Zm18.316,-1.302l-0.781,0.174l0,0.347l0.955,-0.174l-0.174,-0.347Zm-1.128,5.903c1.259,-0.217 2.018,-0.282 2.257,-0.174c-0.76,-1.15 -1.128,-1.736 -1.128,-1.736c-0.347,-0.629 -0.76,-0.977 -1.215,-1.042c-0.477,-0.043 -0.825,0.087 -1.042,0.434c-0.304,0.412 -0.608,0.738 -0.955,0.955c-0.13,0 -0.174,-0.043 -0.174,-0.174l-0.26,-0.174l-0.347,0c-0.521,0 -0.911,0.065 -1.128,0.174c0,0 -0.391,0.152 -1.128,0.434c-0.412,-0.391 -0.673,-0.608 -0.781,-0.608c-0.304,-0.217 -0.499,-0.347 -0.608,-0.347c-0.239,0 -0.347,-0.13 -0.347,-0.434l0,-1.128c1.259,-0.629 2.344,-0.738 3.212,-0.347c-0.76,-0.391 -1.476,-0.738 -2.17,-1.042c-0.694,-0.347 -1.302,-0.521 -1.823,-0.521l-1.128,0c-0.412,1.042 -1.172,1.562 -2.257,1.562c0.456,0 0.955,0.239 1.476,0.694l1.562,1.215c0.347,0.239 0.651,0.608 0.955,1.128c-1.389,-0.391 -2.409,-0.456 -3.038,-0.174c0,0.13 0.087,0.326 0.26,0.608c0.174,0.239 0.456,0.347 0.868,0.347l6.076,0.521l2.865,-0.174Zm-21.354,-5.122c-0.412,0.239 -0.846,0.564 -1.302,0.955c-0.412,0.347 -0.608,0.586 -0.608,0.694c0.217,-0.347 0.608,-0.716 1.128,-1.128l0.781,-0.521Zm6.684,1.91c0.521,-0.391 0.564,-0.868 0.174,-1.389c-0.239,0 -0.673,0.217 -1.302,0.608c0.217,0.239 0.608,0.499 1.128,0.781Zm12.76,-0.955c0.109,0.13 0.195,0.217 0.26,0.26c0.043,0.065 0.087,0.152 0.087,0.26l-0.174,0.174l1.736,0l0,-0.521c0,0 -0.043,-0.022 -0.087,-0.087c-0.065,-0.043 -0.087,-0.087 -0.087,-0.087c0,0 -0.152,-0.13 -0.434,-0.434c-0.239,0 -0.412,0.065 -0.521,0.174l-0.781,0.26Zm4.167,0.694l-1.128,0l-0.174,0.608l1.302,0.174l0,-0.781Zm-19.618,1.91c0.282,-0.217 0.347,-0.456 0.174,-0.694l-0.174,-0.608l-1.736,-0.174c0.391,0.521 0.716,0.846 0.955,0.955l0.781,0.521Z" style="fill:#fff;fill-rule:nonzero;"/></g></g></g><g><g><g><path d="M2191.036,1788.43c0.868,-0.109 2.192,-0.174 3.993,-0.174c6.25,0 10.894,1.693 13.976,5.035c3.125,3.364 4.688,8.16 4.688,14.41c0,0.998 -0.13,2.756 -0.347,5.295c-1.172,9.332 -3.863,17.882 -8.073,25.694c-4.167,7.812 -10.634,13.694 -19.358,17.622c-5.729,2.669 -12.543,3.993 -20.399,3.993c-2.669,0 -4.688,-0.043 -6.076,-0.174c-11.111,-0.911 -19.401,-4.948 -24.826,-12.066c-5.447,-7.118 -8.55,-16.45 -9.375,-28.038c-0.109,-2.257 -0.174,-5.556 -0.174,-9.896c0,-10.764 0.911,-20.421 2.691,-28.993c3.299,-15.321 9.201,-27.517 17.708,-36.545c10.286,-10.699 22.049,-16.059 35.243,-16.059c13.997,0 23.915,5.208 29.774,15.625c2.431,4.753 3.646,10.59 3.646,17.535c0,5.382 -0.521,10.634 -1.562,15.712c-0.347,2.04 -1.562,3.038 -3.646,3.038l-24.566,0.694c-1.28,0.174 -2.3,-0.217 -3.038,-1.215c-0.76,-1.042 -1.02,-2.127 -0.781,-3.299c0.738,-4.21 1.128,-7.986 1.128,-11.285c0,-3.928 -1.085,-6.38 -3.212,-7.378c-0.998,-0.391 -1.801,-0.608 -2.431,-0.608c-3.082,0 -6.641,2.93 -10.677,8.767c-6.38,10.417 -9.549,25.738 -9.549,45.92c0,3.711 0.347,7.509 1.042,11.372c0.694,3.885 2.04,6.315 4.08,7.292c1.78,1.042 3.581,1.562 5.382,1.562c2.648,0 5.143,-0.998 7.465,-3.038c2.365,-2.018 4.123,-4.557 5.295,-7.639l-7.812,1.302l-0.955,0c-1.042,0 -1.888,-0.304 -2.517,-0.955c-0.868,-0.868 -1.259,-1.997 -1.128,-3.385l3.646,-24.392c0.347,-2.192 1.476,-3.342 3.385,-3.472c9.31,-1.259 15.104,-2.018 17.361,-2.257Zm-4.34,-45.747l0.521,0l0.955,-0.955l-1.736,-0.174l0,0.694l0.26,0.434Zm4.167,0.781c-0.412,0.13 -0.933,0.174 -1.562,0.174c-0.13,0 -0.499,0.326 -1.128,0.955l0.608,0.521l2.083,0l0.347,-0.174l0,-0.347c-0.521,0 -0.781,-0.195 -0.781,-0.608c0,-0.109 0.13,-0.282 0.434,-0.521Zm15.972,1.649c0.174,0.174 0.434,0.26 0.781,0.26l0.781,-0.781l-0.434,0c-0.13,-0.109 -0.412,-0.174 -0.868,-0.174l-0.26,0.174l0,0.521Zm-9.288,0.781c-0.412,0.13 -0.608,0.26 -0.608,0.434c0,0.651 0.304,0.955 0.955,0.955l0.781,0l0.174,-0.434c0.109,0 0.174,-0.043 0.174,-0.174c0.109,-0.109 0.174,-0.304 0.174,-0.608c0,-0.217 -0.326,-0.456 -0.955,-0.694l-0.694,0.521Zm4.514,0c-0.239,0.304 -0.347,0.499 -0.347,0.608c0,0.13 0.304,0.391 0.955,0.781l0.174,-0.434l0,-0.781c0,-0.109 -0.26,-0.174 -0.781,-0.174Zm-12.934,3.299c0.391,0 0.716,0.065 0.955,0.174l0,-0.608l0.347,-0.347c-0.477,-0.282 -0.955,-0.434 -1.476,-0.434c-0.521,0 -0.781,0.217 -0.781,0.608l0.955,0.608Zm11.458,-0.26l0,-0.347l-0.174,-0.174l-0.26,0.781l0.434,-0.26Zm-24.566,0.434l0.174,-0.434l-0.434,0l-0.174,0.434l0.434,0Zm1.476,0.955l0.174,0.694l1.562,0c0,-0.217 -0.13,-0.608 -0.347,-1.128c-0.174,0.174 -0.434,0.26 -0.781,0.26l-0.608,0.174Zm17.188,2.083c0,0.239 0.109,0.326 0.347,0.26c0.282,-0.043 0.434,-0.195 0.434,-0.434l0,-0.608l-0.781,0l0,0.781Zm-0.174,1.476c0,0.412 0.195,0.825 0.608,1.215c0.456,0.347 0.955,0.521 1.476,0.521c0.347,0 0.608,-0.043 0.781,-0.174l0.521,0c0,-0.109 -0.065,-0.217 -0.174,-0.347c-0.13,-0.174 -0.326,-0.26 -0.608,-0.26c-0.347,0 -0.521,-0.217 -0.521,-0.694c-0.304,-0.174 -0.434,-0.369 -0.434,-0.608c0,-0.217 -0.13,-0.347 -0.347,-0.347l-1.128,0.174l-0.174,0.521Zm-2.344,0c0,-0.347 -0.174,-0.521 -0.521,-0.521c-0.304,0.239 -0.564,0.347 -0.781,0.347c-0.304,0 -0.434,0.152 -0.434,0.434c0,0.239 0.13,0.347 0.434,0.347l1.128,0c0.109,0 0.174,-0.195 0.174,-0.608Zm-2.431,2.17c0.347,-0.282 0.195,-0.477 -0.434,-0.608l0,0.608l0.434,0Zm6.424,2.604c0,0 0.13,0.152 0.434,0.434c0.109,0 0.174,-0.043 0.174,-0.174c0.109,-0.174 0.13,-0.347 0.087,-0.521c-0.065,-0.174 -0.152,-0.26 -0.26,-0.26c-0.304,0.239 -0.434,0.412 -0.434,0.521Zm-2.257,0.26c0,-0.391 -0.651,-0.608 -1.91,-0.608l-1.562,0c-0.76,0 -1.259,0.13 -1.476,0.347c0.217,0.174 0.629,0.391 1.215,0.608c0.564,0.239 1.063,0.434 1.476,0.608l1.476,-0.26c0.521,-0.109 0.781,-0.347 0.781,-0.694Zm-1.128,2.778l0.347,-0.347l0,-0.608c0,-0.347 -0.26,-0.521 -0.781,-0.521l-0.521,0.174l-0.174,0l0,0.781l1.128,0.521Zm5.295,0.434c0.282,-0.109 0.434,-0.369 0.434,-0.781l-0.434,-0.174l-0.521,0.174l-0.781,0c0.109,0.13 0.543,0.391 1.302,0.781Zm-6.424,2.257c0.347,0 0.564,-0.109 0.694,-0.347l0.955,-0.608c0.282,0 0.477,-0.043 0.608,-0.174l0,-0.608l-0.347,-0.347l-0.781,-0.347c-0.412,0.868 -1.194,1.302 -2.344,1.302l0.434,0.781c0.109,0.239 0.369,0.347 0.781,0.347Zm-33.594,-0.955c-0.239,0.13 -0.347,0.391 -0.347,0.781c0,0.239 0.477,0.608 1.476,1.128l0.781,0.434l0.347,-0.955c0,0 -0.608,-0.629 -1.823,-1.91c0,0.13 -0.152,0.304 -0.434,0.521Zm38.368,1.389c0.456,0 0.694,-0.13 0.694,-0.434c-0.13,-0.217 -0.347,-0.347 -0.694,-0.347c-0.304,0.521 -0.304,0.781 0,0.781Zm-53.993,1.649l0.174,-0.174c0,0 -0.043,-0.022 -0.087,-0.087c-0.065,-0.043 -0.087,-0.087 -0.087,-0.087l0,-0.174c-0.412,0 -0.608,0.26 -0.608,0.781c0.282,0 0.477,-0.087 0.608,-0.26Zm15.278,0.608c-0.304,0.13 -0.499,0.326 -0.608,0.608c-0.13,0.239 -0.174,0.412 -0.174,0.521l1.128,0c0.629,-0.521 1.519,-0.781 2.691,-0.781l-3.038,-0.347Zm36.806,1.562c0,-0.391 -0.217,-0.651 -0.608,-0.781c-0.76,0.13 -1.128,0.391 -1.128,0.781l0.521,0.174l0.608,0.174c0.217,-0.217 0.434,-0.347 0.608,-0.347Zm-2.517,0c0,-0.174 -0.152,-0.304 -0.434,-0.434c-0.239,-0.109 -0.477,-0.174 -0.694,-0.174c-0.521,0 -0.781,0.217 -0.781,0.608l1.91,0Zm-9.549,9.115c-0.76,0.412 -1.128,0.781 -1.128,1.128l1.128,0c0.109,-0.109 0.174,-0.282 0.174,-0.521c-0.13,-0.174 -0.174,-0.369 -0.174,-0.608Zm11.632,15.278l-0.955,0l0,0.347c0,-0.109 0.13,-0.174 0.434,-0.174l0.521,-0.174Zm8.594,0.521c-0.13,-0.109 -0.434,-0.174 -0.955,-0.174c-0.868,0 -1.454,0.391 -1.736,1.128c0.521,0.304 0.89,0.434 1.128,0.434l1.562,-0.434l0,-0.955Zm-0.608,2.344l-0.347,0l0,0.694l0.347,0l0,-0.694Zm0.26,11.632l0.174,-1.562l0.174,-2.257l-0.781,-0.781c0.391,-0.629 0.608,-1.15 0.608,-1.562c0,-0.217 -0.065,-0.391 -0.174,-0.521l0.174,-1.736l-0.608,0c-0.13,0 -0.304,0.13 -0.521,0.347l-0.434,0.434c0.391,1.28 0.543,1.975 0.434,2.083c-0.174,0.13 -0.26,0.434 -0.26,0.955l0,6.076c-0.13,0.13 -0.174,0.391 -0.174,0.781l0,6.858c0.282,0.412 0.543,0.608 0.781,0.608c0.217,0 0.543,-0.195 0.955,-0.608l0,-1.562c-0.239,-1.259 -0.347,-2.778 -0.347,-4.514l0,-2.17l0.174,-0.521l-0.174,-0.347Zm-5.382,3.385c0.282,-0.109 0.434,-0.304 0.434,-0.608l-1.215,-0.174l-0.174,0.608l0.955,0.174Zm-50.694,11.458c0.109,-0.282 0.174,-0.651 0.174,-1.128c-0.13,-0.391 -0.174,-0.868 -0.174,-1.389l-0.347,-0.174l-1.389,0c-0.239,1.172 -0.304,1.801 -0.174,1.91l0.174,0.781l0.781,0c0.391,0.13 0.716,0.13 0.955,0Zm15.017,19.444l-0.347,0.955l0.347,0l0.434,0.174l0.781,0l0,-1.128l-1.215,0Zm11.632,11.198c-0.13,0.174 -0.347,0.26 -0.694,0.26c-0.412,0 -0.738,0.13 -0.955,0.347l0,0.174c0,0 0.022,0.043 0.087,0.087c0.043,0.065 0.087,0.087 0.087,0.087l2.083,0l0.347,-0.347l-0.955,-0.608Z" style="fill:#fff;fill-rule:nonzero;"/></g></g></g><g><g><g><path d="M2328.05,1856.659c0,1.042 -0.347,1.953 -1.042,2.691c-0.694,0.76 -1.628,1.128 -2.778,1.128l-28.733,0c-2.322,0 -3.602,-1.15 -3.819,-3.472l-1.91,-23.177l-28.819,5.642l-4.167,17.535c-0.521,1.91 -1.801,2.865 -3.819,2.865l-28.212,-0.521c-1.28,0 -2.257,-0.456 -2.951,-1.389c-0.694,-0.977 -0.911,-2.17 -0.694,-3.559c3.168,-11.979 7.574,-26.997 13.194,-45.052c2.886,-9.484 6.771,-20.334 11.632,-32.552c4.449,-11.285 10.417,-25.716 17.882,-43.316c0.521,-1.085 1.476,-1.845 2.865,-2.257l3.993,-0.781c3.819,-0.738 6.727,-1.237 8.767,-1.476c1.15,-0.282 3.06,-0.434 5.729,-0.434c2.431,0 4.21,0.087 5.382,0.26c6.076,0.477 10.959,4.839 14.67,13.108c1.15,3.082 2.474,7.465 3.993,13.194c1.671,6.836 3.212,13.802 4.601,20.92l14.236,79.861l0,0.781Zm-59.635,-119.705l0,-1.128l-0.781,0l0,1.128l0.781,0Zm23.09,4.948l0,-1.476l-0.608,0l0,1.476l0.608,0Zm-1.562,3.212c0.282,-0.456 0.434,-0.955 0.434,-1.476c-0.651,0 -0.955,-0.043 -0.955,-0.174l0,1.128l0.521,0.521Zm-22.135,-0.694l0,2.431c0,-0.521 0.304,-1.259 0.955,-2.257l-0.521,0l-0.434,-0.174Zm25.174,0.521c0.282,-0.217 0.477,-0.347 0.608,-0.347l-2.083,-0.174l0,0.694c0.109,0.174 0.174,0.391 0.174,0.608l0.781,0c0,-0.109 0.174,-0.369 0.521,-0.781Zm-1.476,0.781l0,-0.347l-0.434,-0.781l0,0.521l0.434,0.608Zm3.559,0.955c-0.477,0 -0.911,0.434 -1.302,1.302l0.347,0.434l2.517,0l0.781,-0.434c-0.651,-0.347 -0.955,-0.716 -0.955,-1.128l0.347,-0.521c-0.76,0.239 -1.345,0.347 -1.736,0.347Zm-0.521,5.122c-0.521,0 -0.781,0.26 -0.781,0.781c0.217,0.239 0.543,0.347 0.955,0.347c0.109,0 0.434,0.152 0.955,0.434c0.217,-0.282 0.347,-0.477 0.347,-0.608l0.26,-0.347c-0.651,-0.391 -1.215,-0.608 -1.736,-0.608Zm-15.451,1.736l0.174,-0.608l-0.174,0l-0.347,0.434l0.347,0.174Zm2.083,1.91l0.955,0c0.109,0.13 0.217,0.152 0.347,0.087c0.174,-0.043 0.304,-0.087 0.434,-0.087c0,-0.521 -0.13,-0.89 -0.347,-1.128c-0.174,0 -0.326,0.043 -0.434,0.087c-0.13,0.065 -0.239,0.087 -0.347,0.087l-0.781,0l0.174,0.955Zm16.58,2.517c0,0.13 -0.326,0.304 -0.955,0.521c-0.239,0 -0.347,0.217 -0.347,0.608c0,0.13 0.109,0.304 0.347,0.521l1.128,0c0.521,-0.217 0.781,-0.456 0.781,-0.694c0,-0.629 -0.326,-0.955 -0.955,-0.955Zm-41.927,7.378c0.109,-0.217 -0.065,-0.13 -0.521,0.26c-0.412,0.347 -0.608,0.586 -0.608,0.694c0,0.412 0.13,0.868 0.434,1.389c0.347,0.477 0.564,0.694 0.694,0.694c0.109,-0.347 0.174,-0.825 0.174,-1.476c0,-0.738 -0.065,-1.259 -0.174,-1.562Zm13.194,2.865c0,0 0.022,-0.022 0.087,-0.087c0.043,-0.043 0.13,-0.087 0.26,-0.087c0.391,0.13 0.651,0.065 0.781,-0.174l-0.955,-0.434c-0.13,0 -0.174,0.152 -0.174,0.434l0,0.347Zm-13.368,4.948l0.781,0l0,-2.257l-0.781,0.174l0,2.083Zm22.309,-1.302c-1.042,0 -1.823,0.434 -2.344,1.302c0.282,0.933 0.608,1.454 0.955,1.562c0.391,0.13 0.977,-0.022 1.736,-0.434l0.608,-1.476l-0.174,-0.434c0,-0.109 -0.152,-0.282 -0.434,-0.521l-0.347,0Zm20.573,0.521l1.302,0l0,-0.347l-1.302,0l0,0.347Zm2.083,3.125c0,-0.629 -0.391,-0.955 -1.128,-0.955l-0.174,0.521l0.174,0.434l1.128,0Zm-16.58,20.92c-0.521,-4.036 -0.955,-7.075 -1.302,-9.115c-1.042,-5.317 -1.888,-9.332 -2.517,-12.066l-9.288,30.729l14.236,-0.347l-1.128,-9.201Zm-8.16,-18.49l0.347,0.174l0.608,-1.476l-0.434,-0.174l-0.521,1.476Zm18.49,0l0.347,-0.174l-0.347,-0.347l-0.608,0.174l0.608,0.347Zm-23.872,11.111c0.391,-0.282 0.803,-0.716 1.215,-1.302c0.456,-0.564 0.738,-1.042 0.868,-1.389l0.434,-1.562l1.91,-3.993l-0.955,-0.347l-0.955,0.694c-0.521,0.521 -0.846,0.781 -0.955,0.781c-0.651,2.431 -0.955,3.602 -0.955,3.472c-0.412,0.868 -0.673,1.302 -0.781,1.302c0,0.304 -0.217,0.564 -0.608,0.781c-0.239,0.239 -0.412,0.673 -0.521,1.302l-1.389,4.253l-0.694,2.604c-0.412,1.172 -0.998,2.17 -1.736,3.038c-0.76,0.933 -1.259,1.714 -1.476,2.344c-0.174,0.651 -0.26,1.02 -0.26,1.128c-0.239,0.521 -0.347,1.107 -0.347,1.736c-0.13,0.76 -0.499,1.649 -1.128,2.691c-0.521,0.998 -0.846,1.736 -0.955,2.257c0,0.868 0.109,1.302 0.347,1.302c0.391,0.13 0.716,0.13 0.955,0c0,0 0.195,-0.174 0.608,-0.521c0.456,-1.15 0.825,-2.257 1.128,-3.299c0.109,-1.085 0.543,-2.105 1.302,-3.038c0,-0.347 0.369,-0.911 1.128,-1.736l0.781,-2.083c0.217,-0.347 0.608,-1.324 1.128,-2.951c0.521,-1.671 1.15,-3.407 1.91,-5.208l0,-2.257Zm26.302,-4.427l0.174,-0.174l-1.302,-0.174l0,0.694l1.128,0l0,-0.347Zm3.819,1.736l-1.128,-0.434l0,0.434l1.128,0.347l0,-0.347Zm-9.115,0.955c0.109,0.239 0.282,0.347 0.521,0.347c0.282,0 0.434,-0.109 0.434,-0.347l-0.955,0Zm9.896,6.684c0.629,0 0.955,-0.26 0.955,-0.781l-0.955,0.781Zm-12.24,0.521c0,-0.109 -0.13,-0.282 -0.347,-0.521l-0.781,-0.26l0,0.781l1.128,0Zm6.858,1.91c-0.13,-0.977 -0.868,-1.606 -2.257,-1.91c-0.347,0.13 -0.521,0.499 -0.521,1.128l1.128,0c-0.651,0.412 -0.738,0.868 -0.26,1.389l1.736,0l0,-0.608l0.174,0Zm5.035,-1.128c0.738,0 1.128,-0.109 1.128,-0.347c-0.13,0 -0.239,-0.022 -0.347,-0.087c-0.065,-0.109 -0.087,-0.217 -0.087,-0.347l-0.347,0c-0.239,0 -0.347,0.152 -0.347,0.434l0,0.347Zm-2.517,0c0.217,0.239 0.434,0.347 0.608,0.347l0.347,-0.521c0,-0.109 -0.391,-0.174 -1.128,-0.174l0.174,0.347Zm2.517,2.083c0.456,0.304 0.825,0.434 1.128,0.434c0.629,0 1.259,-0.195 1.91,-0.608c-0.521,-0.521 -1.042,-0.781 -1.562,-0.781l-1.476,0l0,0.955Zm-5.208,2.257c0.521,0 0.825,0.087 0.955,0.26l1.128,0l0,-0.955l-0.521,-0.26c-0.13,-0.109 -0.326,-0.174 -0.608,-0.174c-0.651,0.304 -0.955,0.673 -0.955,1.128Zm-7.639,-0.521l0,0.347l1.562,0l0,-0.347l-1.562,0Zm16.84,0.781c-0.174,-0.521 -0.391,-0.781 -0.608,-0.781l-1.91,0c-0.651,0.521 -1.172,0.868 -1.562,1.042c-0.347,0.174 -0.521,0.326 -0.521,0.434c0,0.521 0.564,1.693 1.736,3.472l2.604,0l0.781,-0.174c-0.347,-0.629 -0.781,-0.955 -1.302,-0.955c-0.521,0 -1.172,-0.369 -1.91,-1.128c0.868,-0.282 1.345,-0.543 1.476,-0.781c0.174,-0.391 0.564,-0.781 1.215,-1.128Zm-46.528,-0.26l-0.434,1.736c0,0.521 0.195,0.911 0.608,1.128c0.391,-0.629 0.608,-1.128 0.608,-1.476l0,-1.389l-0.781,0Zm37.76,0.955l-0.26,-0.347l-1.302,0l0,0.781l0.955,0.781l0,-0.26l0.347,-0.174l0.434,0l-0.174,-0.781Zm2.257,0.955c0,0 -0.043,-0.022 -0.087,-0.087c-0.065,-0.043 -0.087,-0.087 -0.087,-0.087l-0.434,0l0.434,2.344c0.347,-0.521 0.608,-1.15 0.781,-1.91l-0.608,-0.26Zm-4.601,0.955c-0.239,-0.109 -0.521,-0.13 -0.868,-0.087c-0.304,0.065 -0.499,0.087 -0.608,0.087l0.521,0.955c0.282,-0.109 0.651,-0.174 1.128,-0.174l1.389,0.174c0.217,0 0.477,-0.087 0.781,-0.26c0.347,-0.174 0.521,-0.391 0.521,-0.694l-2.865,0Zm-1.91,2.17l-0.174,0.521l0.434,0.174l0.174,-0.694l-0.434,0Zm2.691,2.604c0.109,-0.109 0.174,-0.282 0.174,-0.521l-1.128,-0.174l-0.347,0.347l-0.174,0.347l1.302,0.434c0,-0.282 0.043,-0.434 0.174,-0.434Zm-3.038,0c0.521,0 0.629,-0.109 0.347,-0.347l-0.347,0.347Zm10.677,2.083c0,-0.109 -0.217,-0.347 -0.608,-0.694l-0.521,0.174c-0.13,0 -0.174,0.065 -0.174,0.174l1.128,0.347l0.174,0Zm-1.736,2.691c-0.239,-0.217 -0.347,-0.608 -0.347,-1.128c-0.304,-0.521 -0.434,-0.89 -0.434,-1.128c-1.107,-0.738 -2.127,-1.063 -3.038,-0.955c0,0.239 0.195,0.347 0.608,0.347c0.521,0.13 0.955,0.694 1.302,1.736l0,1.128l1.91,0Zm-10.069,-1.91l0,0.781l0.521,0l0,-0.781l-0.521,0Zm17.882,2.344l0,-0.26l-1.128,-0.174l0,0.434l1.128,0Zm-13.715,0.955l0.781,0l0,-0.955l-0.781,0l0,0.955Zm-4.167,0.694l0,-0.347l-0.608,0l0,0.347l0.608,0Zm-7.292,0.608l0,0.347l0.955,0l0,-0.347l-0.955,0Zm4.948,3.038c0.174,-0.109 0.26,-0.434 0.26,-0.955c-0.304,0 -0.76,0.217 -1.389,0.608l0.781,0l0.347,0.347Zm7.465,-0.781l-2.083,2.083c0.738,0.412 1.389,0.608 1.91,0.608c0.868,-0.629 1.302,-1.15 1.302,-1.562c0,-0.109 -0.174,-0.347 -0.521,-0.694c-0.412,0 -0.608,-0.13 -0.608,-0.434Zm2.865,6.51l0.955,0l0,-0.347l-0.955,0l0,0.347Zm-2.517,0c0,0.651 0.391,1.172 1.215,1.562l0,-1.562l-1.215,0Zm7.465,1.302c0,0.304 0.13,0.673 0.434,1.128c0.347,0.412 0.781,0.608 1.302,0.608c0.629,0 0.998,-0.043 1.128,-0.174c0,0 0.369,-0.043 1.128,-0.174c-0.13,-0.282 -0.304,-0.434 -0.521,-0.434l-0.781,-0.521c-0.13,-0.109 -0.174,-0.694 -0.174,-1.736c-0.174,0.521 -0.499,0.781 -0.955,0.781l-1.562,0.521Zm-42.708,0.26l0,0.955l2.083,0l0,-0.955l-2.083,0Zm-2.431,3.559c-0.304,-0.521 -0.434,-0.89 -0.434,-1.128c-1.28,-0.629 -2.04,-0.955 -2.257,-0.955c-0.651,0 -1.128,0.217 -1.476,0.608c-0.304,0.347 -0.434,0.673 -0.434,0.955c0,0.347 0.26,0.76 0.781,1.215c0.521,0.477 1.063,0.694 1.649,0.694c0.282,0 0.477,-0.087 0.608,-0.26l1.91,0l-0.347,-1.128Zm32.205,-2.083l0,0.781l0.521,0l0,-0.781l-0.521,0Zm21.528,0.608l0,-0.434l-0.781,0l0,0.434l0.781,0Zm-19.444,0.174c0.521,0.13 0.781,0.304 0.781,0.521l1.91,0l0,-0.521l-2.691,0Zm-9.375,0.174l-0.521,0.174l0.174,0.434l0.608,-0.26l-0.26,-0.347Zm31.858,26.128c0.391,0 0.716,-0.109 0.955,-0.347l-1.562,-9.201l-0.694,-0.955l-0.434,-0.955c0,-0.347 0.304,-0.781 0.955,-1.302c-1.107,-0.629 -1.606,-1.215 -1.476,-1.736c0.217,-0.738 0.347,-1.259 0.347,-1.562c0,-0.738 -0.26,-1.562 -0.781,-2.431c-0.347,-0.629 -0.521,-1.063 -0.521,-1.302c0,-0.521 0.174,-0.781 0.521,-0.781c0.174,0 0.26,-0.195 0.26,-0.608c0,-0.521 -0.217,-1.15 -0.608,-1.91l-1.302,1.128l-1.389,0.955l-0.521,-0.347l0,-1.91c0,-0.629 0.543,-0.955 1.649,-0.955l0.781,0.608l0,-1.562c-0.347,-0.217 -0.846,-0.434 -1.476,-0.608c-0.651,-0.217 -1.107,-0.347 -1.389,-0.347c-0.651,0 -1.432,0.239 -2.344,0.694c-0.868,0.412 -1.302,0.868 -1.302,1.389c0,0.13 0.13,0.326 0.434,0.608l0.781,0.521c-0.412,0.412 -0.412,0.868 0,1.389l0.694,0.521c0.174,0 0.282,0.087 0.347,0.26c0.043,0.13 0.087,0.174 0.087,0.174c-0.412,0.239 -0.868,0.347 -1.389,0.347c-1.107,0 -1.649,0.326 -1.649,0.955c-0.304,0.933 -0.434,1.389 -0.434,1.389c0.282,-0.174 0.564,-0.174 0.868,0c0.347,0.13 0.434,0.304 0.26,0.521c0,0.304 -0.13,0.434 -0.347,0.434c-0.13,0 -0.174,0.065 -0.174,0.174c0,0.239 -0.065,0.412 -0.174,0.521l-0.434,0.781l0,1.736c0.109,0.13 0.781,0.434 1.997,0.955c1.215,0.521 1.237,1.02 0.087,1.476c0.391,0.174 1.172,0.26 2.344,0.26c0.347,0 0.651,-0.087 0.955,-0.26l1.128,0l0,2.691l-0.174,0l0,0.174l-0.174,0l0.521,0.608c0.391,0.347 0.608,0.521 0.608,0.521c0,0.304 0.109,0.434 0.347,0.434c0,0 0.195,0.174 0.608,0.521l0.174,1.736c0.217,0.651 0.651,1.172 1.302,1.562c0,0.239 -0.065,0.412 -0.174,0.521l0,0.434c0,0.239 0.26,0.651 0.781,1.215c0.521,0.586 0.89,0.868 1.128,0.868Zm-71.875,-22.917c0.391,-0.347 0.217,-0.564 -0.521,-0.694l0,0.347l0.521,0.347Zm8.247,3.125c0.217,-0.282 0.13,-0.608 -0.26,-0.955c-0.239,0.239 -0.347,0.564 -0.347,0.955c0,0.13 0.109,0.174 0.347,0.174c0.174,0 0.26,-0.043 0.26,-0.174Zm50.694,1.91c0.109,0 0.174,-0.195 0.174,-0.608l-1.302,0c0,0.412 0.043,0.608 0.174,0.608c0,0 0.174,0.174 0.521,0.521c0,-0.109 0.022,-0.195 0.087,-0.26c0.109,-0.043 0.217,-0.13 0.347,-0.26Zm-55.295,1.476l0.347,-0.174l0,-0.955c0,-0.391 -0.391,-0.608 -1.128,-0.608l-0.347,0.26l-0.174,0.174l0,0.781l1.302,0.521Zm46.354,-1.476l0,0.694l1.302,0l0,-0.694l-1.302,0Zm4.688,2.257c0,-0.391 -0.174,-0.629 -0.521,-0.694c-0.304,-0.043 -0.499,-0.087 -0.608,-0.087l0,0.781l1.128,0Zm-51.823,2.257c0,-0.109 0.087,-0.217 0.26,-0.347c0.217,-0.109 0.391,-0.26 0.521,-0.434l1.302,-0.347l0,-0.781c-0.239,-0.217 -0.412,-0.347 -0.521,-0.347l-0.781,-0.608c-0.521,1.172 -1.541,1.736 -3.038,1.736c0,0.239 0.174,0.564 0.521,0.955c0.391,0.412 0.803,0.608 1.215,0.608c0.109,0 0.282,-0.13 0.521,-0.434Zm49.566,-0.955c-0.521,-0.109 -0.846,-0.217 -0.955,-0.347l0.174,1.302l1.91,-0.347l-1.128,-0.608Zm-41.927,4.774c0.217,-0.109 0.347,-0.369 0.347,-0.781l-0.347,-0.347c-0.239,0 -0.347,0.065 -0.347,0.174l-0.434,0l-0.781,0.174l0.781,0.608l0.781,0.174Zm-7.986,1.128c-0.13,0 -0.326,-0.087 -0.608,-0.26c-0.239,-0.174 -0.499,-0.304 -0.781,-0.434c-0.651,0 -0.955,0.239 -0.955,0.694c0.174,0.174 0.564,0.174 1.215,0l1.128,0Zm2.257,0.781c0.391,-0.347 0.651,-0.521 0.781,-0.521c0,-0.521 -0.26,-0.825 -0.781,-0.955c-0.76,0.347 -1.128,0.586 -1.128,0.694l1.128,0.781Zm51.128,0c0,-0.217 -0.26,-0.608 -0.781,-1.128l-0.955,0.608l-0.434,0.521l2.17,0Zm1.91,8.941l0.174,-0.174c-0.412,-0.738 -0.608,-1.389 -0.608,-1.91l-1.91,0c0.282,0.521 0.608,1.02 0.955,1.476c0.391,0.412 0.781,0.76 1.128,1.042l0.26,-0.434Z" style="fill:#fff;fill-rule:nonzero;"/></g></g></g><g><g><g><path d="M2447.995,1856.659c0,1.042 -0.412,1.953 -1.215,2.691c-0.76,0.76 -1.628,1.128 -2.604,1.128l-27.691,-0.608c-0.998,0 -1.91,-0.391 -2.778,-1.215c-0.825,-0.803 -1.172,-1.736 -1.042,-2.778l2.517,-40.799l-10.069,21.007c-1.454,2.908 -2.93,5.425 -4.427,7.552c-1.519,2.083 -3.212,3.559 -5.122,4.427c-1.693,1.042 -3.646,1.562 -5.903,1.562c-2.431,0 -4.579,-0.716 -6.424,-2.17c-1.866,-1.497 -3.168,-3.646 -3.906,-6.424l-7.205,-22.135l-0.781,-2.604l-0.608,19.01l-0.347,0.174l0,0.955l0.347,0l-0.521,19.618c0,1.28 -0.586,2.387 -1.736,3.299c-0.239,-0.109 -0.76,-0.174 -1.562,-0.174l-5.122,0l-1.128,-0.26l-1.128,-0.347c-0.412,0 -0.846,0.152 -1.302,0.434c-0.412,0.239 -0.673,0.521 -0.781,0.868l8.941,0l-26.91,0.608c-1.172,0 -2.105,-0.369 -2.865,-1.128c-0.738,-0.738 -1.128,-1.693 -1.128,-2.865l3.038,-61.806l1.91,-38.281c0.282,-1.389 0.282,-2.387 0,-3.038l0.955,-19.618c0.109,-2.431 1.389,-3.689 3.819,-3.819l15.104,-0.608l0.174,0.434c0.109,0.13 0.282,0.174 0.521,0.174l-0.521,-0.608l0.955,0c4.905,-0.109 8.963,1.215 12.153,3.993c-0.998,0.13 -2.496,0.174 -4.514,0.174c-1.693,0 -3.364,-0.217 -5.035,-0.694c-0.347,0 -2.648,-0.304 -6.858,-0.955c-0.76,0.868 -1.519,1.302 -2.257,1.302l-2.691,-0.347c-0.998,-0.282 -1.736,-0.434 -2.257,-0.434c-1.042,0 -1.953,0.391 -2.691,1.128c-0.76,-0.347 -1.345,-0.521 -1.736,-0.521c-0.239,0 -0.477,0.065 -0.694,0.174c-0.174,0.13 -0.26,0.239 -0.26,0.347l-0.347,0.26c0,0 -0.391,-0.564 -1.128,-1.736l-0.434,2.691c1.042,-0.174 2.452,-0.26 4.253,-0.26c2.018,0 3.776,0.152 5.295,0.434l1.91,0.174c0.629,0 2.105,-0.109 4.427,-0.347l0.781,-0.434l0.694,0l1.389,-0.174l0.694,0.347c4.102,0.412 8.507,0.608 13.194,0.608c1.389,1.693 2.604,3.863 3.646,6.51l0,0.174l13.715,47.656l22.83,-54.34c5.838,0 12.522,-0.195 20.052,-0.608l0.174,-1.649c-5.1,0.477 -10.938,0.694 -17.535,0.694l-2.083,0l1.128,-2.257l0.174,-0.781l0.26,0.26l0.521,0.347c0.629,-0.217 0.955,-0.543 0.955,-0.955l0.174,-0.347l0,-0.608c0.521,-0.217 1.042,-0.347 1.562,-0.347l8.16,0c5.49,0 9.635,1.389 12.413,4.167c3.928,3.95 5.903,8.832 5.903,14.67l0.608,109.028Zm-81.424,-125.781l0.174,0.521l1.128,0l0.434,-0.694c0,-0.391 -0.26,-0.608 -0.781,-0.608c-0.239,0.239 -0.499,0.347 -0.781,0.347l-0.174,0.434Zm68.229,1.128c-1.628,-0.391 -2.908,-0.781 -3.819,-1.128l-1.302,-0.434c0.217,0.412 0.282,0.673 0.174,0.781l4.948,0.781Zm-11.198,-0.174c-0.304,-0.282 -0.564,-0.434 -0.781,-0.434c-0.412,0 -0.825,0.152 -1.215,0.434c-0.347,0.239 -0.586,0.477 -0.694,0.694c0.217,0.304 0.391,0.434 0.521,0.434c0,0 0.022,0.043 0.087,0.087c0.109,0.065 0.174,0.087 0.174,0.087l1.91,-0.608l0,-0.694Zm-61.024,-0.434c0.109,0.174 0.174,0.174 0.174,0l-0.174,0Zm-19.444,7.118l-0.434,-0.434l-0.521,0.434l0.955,0Zm-0.434,3.038l0,-1.128l-0.694,1.128l0.694,0Zm35.677,13.281c0,0 -0.26,0.26 -0.781,0.781l-0.955,1.128l1.562,0c0.109,-0.217 0.174,-0.543 0.174,-0.955l0,-0.955Zm-5.122,3.125l1.302,0l0,-0.434l-1.302,0l0,0.434Zm59.288,0.955c-0.412,-0.282 -0.608,-0.477 -0.608,-0.608l-1.302,0c0,0.412 0.174,0.781 0.521,1.128l0.781,0l0.608,-0.521Zm-6.076,0.955c0,0.868 -0.521,1.432 -1.562,1.649c0.217,0.304 0.543,0.434 0.955,0.434c0.521,0 1.15,-0.195 1.91,-0.608l0,-1.128l-1.302,-0.347Zm-50.174,5.642l-1.302,-0.694c0,0.13 -0.087,0.174 -0.26,0.174l0,0.174l-0.174,0.174l0.781,0.174l0.955,0Zm56.076,2.865c0,-0.456 -0.412,-0.781 -1.215,-0.955l-0.347,0.434c-0.13,0.239 -0.326,0.347 -0.608,0.347c0.174,0.412 0.564,0.477 1.215,0.174l0.955,0Zm-89.236,20.399l-0.608,-0.521l0.608,1.128l0,-0.608Zm82.899,3.038l0,0.26l0.608,-0.26l0.521,0c0,-0.456 -0.326,-0.694 -0.955,-0.694l-0.521,0.347l0.347,0.347Zm-33.767,1.562c0,0.521 0.087,0.846 0.26,0.955c0.109,0.13 0.174,0.326 0.174,0.608l1.476,0l0.434,-0.608c0,0 -0.043,-0.022 -0.087,-0.087c-0.065,-0.043 -0.087,-0.087 -0.087,-0.087l-0.26,-0.174l-0.347,-0.608l-1.562,0Zm29.774,3.819c-0.651,0.239 -0.955,0.564 -0.955,0.955c0,0.239 0.043,0.347 0.174,0.347l0.174,0.174c0,-0.109 0.13,-0.174 0.434,-0.174l0.174,0l0,-1.302Zm-32.031,1.91l0.174,0.521l0.434,0.26c0.347,0 0.521,-0.304 0.521,-0.955l-1.91,-0.26l0.781,0.434Zm-46.875,0l-0.608,0l0,2.257l0.608,0l0,-2.257Zm62.5,2.865l0,-0.174c0,0 0.022,-0.022 0.087,-0.087c0.043,-0.109 0.087,-0.174 0.087,-0.174c0.174,0 0.26,-0.109 0.26,-0.347c0,-0.629 -0.521,-0.955 -1.562,-0.955c-0.521,0 -1.107,0.391 -1.736,1.128c0.282,0 0.434,0.217 0.434,0.608c0.109,0.13 0.543,0.174 1.302,0.174l1.128,-0.174Zm-10.503,2.257c0.391,0 0.651,-0.043 0.781,-0.174l0.434,0c0.347,-0.391 0.26,-0.911 -0.26,-1.562l-2.257,0.608l-0.781,0.174l0.608,0.434l1.476,0.521Zm-51.997,-1.476l-0.608,0l0,1.649l0.608,0l0,-1.649Zm48.611,4.514l0.955,0l0,-0.694l-0.955,0l0,0.694Zm15.017,-0.347l-1.649,0l0,0.608l1.649,0l0,-0.608Zm-64.931,0.955c-0.304,0.13 -0.391,0.239 -0.26,0.347c0.174,0.13 0.434,0.26 0.781,0.434l0,-1.389c0,0.174 -0.174,0.391 -0.521,0.608Zm0.521,1.128c0,0.239 -0.326,0.499 -0.955,0.781c0.282,0.521 0.434,0.911 0.434,1.128c0,0.76 -0.087,1.28 -0.26,1.562l0,0.694c0,0.933 0.304,1.562 0.955,1.91l-0.174,-6.076Zm51.302,3.993l0.521,0l0.955,-0.347l-0.521,-0.608c0,0 -0.152,-0.109 -0.434,-0.347c-0.239,0.239 -0.868,0.347 -1.91,0.347l0.608,1.128l0.781,-0.174Zm7.205,0.955c0.521,-0.109 0.781,-0.369 0.781,-0.781c0,-0.109 -0.13,-0.282 -0.347,-0.521l-0.26,0l-0.174,-0.174l-1.128,0c-0.651,0.347 -0.955,0.673 -0.955,0.955c0,0.239 0.109,0.499 0.347,0.781c0.282,0.239 0.543,0.347 0.781,0.347l0.955,-0.608Zm-3.385,4.427c0.217,0.13 0.521,0.152 0.868,0.087c0.391,-0.043 0.868,-0.087 1.389,-0.087c-0.651,-1.042 -1.28,-1.562 -1.91,-1.562c-0.13,0 -0.694,0.326 -1.736,0.955l0.608,0.608l0.781,0Zm7.031,0.347c0.217,-0.217 0.347,-0.434 0.347,-0.608c0,-0.347 -0.391,-0.781 -1.128,-1.302c-0.521,0.412 -1.02,0.911 -1.476,1.476c-0.412,0.521 -0.608,0.998 -0.608,1.389c0,0.521 0.043,0.846 0.174,0.955c0.282,0.412 0.738,0.608 1.389,0.608c0.456,0 0.781,-0.195 0.955,-0.608c0,-0.391 0.043,-0.716 0.174,-0.955c0,-0.217 -0.065,-0.347 -0.174,-0.347l0,-0.608l0.347,0Zm-63.108,22.917l0.608,-11.458l1.128,-12.76l-1.736,-0.434l0,5.382c0,0.868 -0.391,1.693 -1.128,2.431l-0.955,0.781c-0.239,0.304 -0.347,0.239 -0.347,-0.174l0.347,7.812l0.608,4.948l0.694,4.167c0.282,1.801 0.434,3.277 0.434,4.427c0,1.519 -0.217,3.168 -0.608,4.948c-0.239,0.76 -0.347,1.454 -0.347,2.083l0.174,2.083c0.109,0.412 0.174,0.846 0.174,1.302c0,0.412 0.043,0.825 0.174,1.215l1.91,-2.517l-1.128,-14.236Zm54.514,-21.007c0,-0.109 -0.174,-0.26 -0.521,-0.434c-0.304,-0.217 -0.564,-0.347 -0.781,-0.347l0,0.781l0.174,0.174c0.391,0 0.651,-0.043 0.781,-0.174l0.347,0Zm-3.212,2.865c0.109,0 0.217,-0.043 0.347,-0.174c0.109,-0.109 0.109,-0.174 0,-0.174c-0.239,0 -0.347,0.065 -0.347,0.174l0,0.174Zm35.243,7.986l-0.521,-0.347c-0.304,-0.282 -0.564,-0.434 -0.781,-0.434c-0.521,0 -0.911,0.326 -1.128,0.955c0,0 0.109,0.152 0.347,0.434c0.217,0.239 0.543,0.347 0.955,0.347c0.109,0 0.304,-0.109 0.608,-0.347l0.521,-0.608Zm11.632,4.253c0,-0.391 -0.13,-0.608 -0.347,-0.608c-0.304,0 -0.608,0.217 -0.955,0.608l1.302,0Zm-44.792,2.257c-1.042,0 -1.953,-0.26 -2.691,-0.781c-0.521,-0.217 -0.846,-0.347 -0.955,-0.347c-0.239,0 -0.477,0.087 -0.694,0.26c-0.174,0.174 -0.26,0.326 -0.26,0.434c1.15,0.521 1.845,0.846 2.083,0.955l0.955,0.608c0.282,0.239 0.608,0.347 0.955,0.347l0.608,-0.347l0,-1.128Zm4.601,1.736l-0.608,-0.781c0,0 -0.26,-0.26 -0.781,-0.781c-0.347,0.13 -0.521,0.434 -0.521,0.955c0.217,0.239 0.477,0.434 0.781,0.608c0.347,0.13 0.564,0.239 0.694,0.347l0.434,-0.347Zm-32.639,0.174c0,0.651 0.521,0.955 1.562,0.955c0.521,0 0.781,-0.304 0.781,-0.955c0,-0.521 -0.326,-0.781 -0.955,-0.781c-0.933,0 -1.389,0.26 -1.389,0.781Zm-6.25,1.476l-0.174,-0.174l-0.955,0c0,0 -0.065,0.043 -0.174,0.087c-0.065,0.065 -0.087,0.087 -0.087,0.087l0,0.434c0,0.347 0.26,0.521 0.781,0.521c0.391,-0.217 0.608,-0.391 0.608,-0.521l0,-0.434Zm33.681,2.691c-0.347,0 -0.521,0.217 -0.521,0.608l0.521,0.174l0,-0.781Zm0,2.517l-0.347,0l0,0.694l0.347,0.26l0,-0.955Zm-37.153,0.955c0,-0.521 -0.174,-0.781 -0.521,-0.781c-0.304,0 -0.608,0.065 -0.955,0.174c-0.304,0.13 -0.499,0.239 -0.608,0.347c0.521,0.521 1.15,0.781 1.91,0.781c0,-0.109 0.043,-0.174 0.174,-0.174l0,-0.347Zm11.632,6.076l0,-0.781l0.955,-0.781l-0.521,-0.174l-0.608,-0.174c-0.651,0 -0.955,0.13 -0.955,0.347l0,0.434c0.521,0.521 0.716,0.955 0.608,1.302c-0.174,0.412 0.195,0.608 1.128,0.608l0.347,0l0,-0.174c-0.13,-0.174 -0.304,-0.26 -0.521,-0.26l-0.434,-0.347Z" style="fill:#fff;fill-rule:nonzero;"/></g></g></g><g><g><g><path d="M2543.816,1727.579c1.259,0 2.279,0.412 3.038,1.215c0.738,0.76 1.128,1.714 1.128,2.865l-0.521,22.656c-0.239,2.431 -1.454,3.711 -3.646,3.819l-52.431,5.469l-1.302,15.885l39.236,-2.083l0,18.663l0.781,0l0,-18.663c1.042,0 1.953,0.391 2.778,1.128c0.803,0.76 1.215,1.628 1.215,2.604l0,19.878c0,2.148 -1.085,3.429 -3.212,3.819l-41.753,5.469l-0.955,15.885l50.868,-1.562c1.15,0 2.105,0.412 2.865,1.215c0.738,0.76 1.128,1.628 1.128,2.604l0,24.045c0,2.387 -1.194,3.646 -3.559,3.819l-80.295,4.167c-1.172,0 -2.105,-0.347 -2.865,-1.042c-0.738,-0.694 -1.128,-1.671 -1.128,-2.951c0.239,-18.793 0.825,-38.368 1.736,-58.681c0.868,-18.685 2.452,-39.714 4.774,-63.108c0.347,-2.3 1.606,-3.472 3.819,-3.472l78.299,-3.646Zm-54.34,4.253l0.434,0l0,-0.608l-0.434,0l0,0.608Zm12.413,1.128c-0.13,0.13 -0.152,0.217 -0.087,0.26c0.043,0.065 0.195,0.087 0.434,0.087c-0.239,0 -0.347,-0.109 -0.347,-0.347Zm3.646,3.212c0.217,-0.217 0.347,-0.477 0.347,-0.781c0,-0.456 -0.391,-0.694 -1.128,-0.694c-0.76,0 -1.345,0.239 -1.736,0.694l-0.521,0.781c0.347,-0.217 0.521,-0.477 0.521,-0.781l0.955,-0.174c0.738,0.13 1.128,0.434 1.128,0.955l0,0.781c0,-0.217 0.13,-0.477 0.434,-0.781Zm28.559,-1.302l-0.347,0l0,0.521l0.347,0l0,-0.521Zm-54.08,1.128l3.993,0l0,-0.608l-3.993,0l0,0.608Zm13.715,-0.608l-2.691,0l0,0.26l-0.434,0c-0.586,0.239 -0.868,0.412 -0.868,0.521l1.302,0l0.174,-0.174l2.517,0l0,-0.608Zm-6.337,0.781l0.608,0l0,-0.347l-0.608,0l0,0.347Zm31.684,0l-1.562,0l0,0.781l1.562,0l0,-0.781Zm-22.743,0.781c-0.239,0 -0.347,0.326 -0.347,0.955c0,0 0.26,-0.26 0.781,-0.781c0.347,-0.347 0.195,-0.391 -0.434,-0.174Zm12.587,0.608l-0.694,0l0,0.347l0.694,0l0,-0.347Zm-30.642,3.212l0.174,0.781l0,0.347l0.781,0c0,-0.109 0.109,-0.282 0.347,-0.521c0.282,-0.282 0.434,-0.434 0.434,-0.434l-1.736,-0.174Zm23.264,2.691c-0.651,-0.282 -0.955,-0.543 -0.955,-0.781l0,-0.174l0.955,-0.955l-0.781,0.347l-0.434,0c-0.13,0 -0.217,0.043 -0.26,0.087c-0.065,0.065 -0.152,0.087 -0.26,0.087l-0.347,0c-0.651,0.304 -1.172,0.825 -1.562,1.562l0.347,0.347l2.344,0c0.109,0 0.195,-0.022 0.26,-0.087c0.043,-0.043 0.087,-0.087 0.087,-0.087l0.174,0l0.434,-0.347Zm6.424,0.521l0.26,0l0.174,0.174l0.174,-0.521l-0.608,0l0,0.347Zm-10.851,1.389l-0.347,-1.215c-1.042,0.412 -1.562,0.825 -1.562,1.215c0.391,0.13 0.651,0.13 0.781,0l1.128,0Zm8.42,1.476c0,-0.217 -0.326,-0.608 -0.955,-1.128l-0.608,1.128l1.562,0Zm7.812,0.174c0,-0.109 -0.152,-0.282 -0.434,-0.521l-0.347,-0.434c-1.042,0.412 -1.562,0.825 -1.562,1.215l2.344,-0.26Zm-12.76,0.26c-0.76,-0.391 -1.345,-0.608 -1.736,-0.608c-0.651,0 -0.955,0.326 -0.955,0.955l0.955,0.608l0.608,0.174l0.174,0c0.217,0 0.347,-0.195 0.347,-0.608l0.608,-0.521Zm7.378,1.476c0.282,0.304 0.608,0.304 0.955,0c0,-0.738 -0.239,-1.172 -0.694,-1.302l-1.562,0.347l0.347,0.955l0.955,0Zm-40.017,-0.521l-0.174,0l-0.347,0.174l0.347,0.174l0.174,-0.347Zm35.503,1.649c0.347,0 0.521,-0.217 0.521,-0.694c0,-0.521 -0.326,-0.781 -0.955,-0.781l-0.347,0.174l-0.174,0l-0.26,0.174c-0.239,0.304 -0.347,0.564 -0.347,0.781l0.174,0.347l1.389,0Zm28.385,-1.302l-0.434,0l0,0.955l0.434,0l0,-0.955Zm-28.819,9.375l-0.347,0l0,0.521l0.347,0l0,-0.521Zm-15.451,0.521c-0.239,0 -0.347,0.217 -0.347,0.608l0.347,0l0.26,-0.174c-0.174,0 -0.26,-0.13 -0.26,-0.434Zm-1.128,9.375c-0.239,0.239 -0.347,0.347 -0.347,0.347l0.955,0.174c0.109,-0.109 0.109,-0.434 0,-0.955c-0.13,0 -0.326,0.152 -0.608,0.434Zm0.955,3.819l0.174,-0.26l-0.955,-0.174l0,0.174l0.781,0.26Zm1.128,7.639l0.955,0l0,-0.955l-0.955,0l0,0.955Zm0.608,2.431c-0.412,0 -0.673,-0.043 -0.781,-0.174l-0.781,-0.174l-0.174,0.174c-0.347,0.13 -0.521,0.391 -0.521,0.781c0,0.651 0.477,0.955 1.476,0.955c0.391,0 0.651,-0.087 0.781,-0.26l0,-1.302Zm14.497,1.128l0.174,0l0,-0.174l-0.174,0.174Zm27.257,2.517c0.347,0 0.651,0.065 0.955,0.174l0.955,0.174l0.781,-0.955l0,-1.476c-0.174,-0.174 -0.434,-0.304 -0.781,-0.434c-0.304,-0.109 -0.564,-0.174 -0.781,-0.174l-1.128,0.781l0,1.91Zm-26.302,-2.344l0.347,-0.174l-0.347,0l0,0.174Zm-4.948,1.91l0.955,0.781c0.217,-0.109 0.369,-0.304 0.434,-0.608c0.043,-0.347 -0.043,-0.564 -0.26,-0.694l-1.128,0.521Zm4.948,0.26l0.781,0.347l0.347,-1.128l-0.781,0l-0.347,0.781Zm-11.285,1.302c0.738,-0.217 0.738,-0.608 0,-1.128l0,1.128Zm-2.865,1.128l0.781,0.781l0.955,0.174l0.174,-0.174l0.434,0l0,-0.955c-0.521,0 -0.933,-0.109 -1.215,-0.347l-0.347,0.174l-0.174,0.174l-0.608,0.174Zm9.201,-0.174l0.347,0.781l1.302,0l-0.521,-0.434l-0.781,-0.521l-0.347,0.174Zm-12.587,0.608c-0.13,-0.174 -0.391,-0.304 -0.781,-0.434c-0.412,-0.109 -0.738,-0.174 -0.955,-0.174c0,0.239 0.195,0.499 0.608,0.781c0.217,0.239 0.781,0.347 1.649,0.347l0.608,0l0,-0.521l-1.128,0Zm12.153,2.257l1.562,0c0.217,-0.109 0.347,-0.304 0.347,-0.608l0,-0.694l-1.476,0l-0.174,0.694l-0.26,0.608Zm-13.542,1.128c0,0.13 0.022,0.217 0.087,0.26c0.109,0.065 0.217,0.043 0.347,-0.087l0.521,-0.174l-0.347,-0.174l-0.174,0c-0.304,0 -0.434,0.065 -0.434,0.174Zm-2.257,3.646c0.629,0 1.063,-0.13 1.302,-0.434c-0.239,0 -0.477,-0.109 -0.694,-0.347l-0.26,-0.174l-0.955,0c-0.347,0.347 -0.521,0.738 -0.521,1.128l1.128,-0.174Zm2.691,0.955c-0.651,0 -1.541,-0.13 -2.691,-0.434l-0.608,0.434l0.608,0.781c0.217,-0.629 0.543,-0.825 0.955,-0.608c0.738,0 1.324,-0.043 1.736,-0.174Zm-8.247,0c-0.347,0.13 -0.521,0.391 -0.521,0.781l0.521,0.347l0.781,-0.174c0,-0.282 0.195,-0.477 0.608,-0.608l-0.608,-0.174l-0.781,-0.174Zm51.91,5.122l0.694,-0.955l0.434,-0.781l-0.434,-1.302c-0.13,-0.109 -0.347,-0.694 -0.694,-1.736l0,4.774Zm-43.837,-1.736c0,-0.217 0.369,-0.868 1.128,-1.91l-0.781,-0.174l-0.781,0c-0.347,0 -0.738,0.152 -1.128,0.434l-1.562,0.521c0.391,0.13 0.738,0.26 1.042,0.434c0.347,0.13 0.564,0.239 0.694,0.347c-0.239,0.651 -0.304,1.085 -0.174,1.302l1.736,-0.347l-0.174,-0.608Zm-5.208,-0.347c0.391,0.239 0.716,0.239 0.955,0l-0.174,-0.174l-0.347,-0.26l-0.434,0.26l0,0.174Zm6.163,-0.174c0.109,0.347 0.26,0.608 0.434,0.781c0.174,0.13 0.456,0.174 0.868,0.174c0.109,0 0.543,-0.13 1.302,-0.434l-0.521,-0.521l-2.083,0Zm-5.729,0.521c-0.76,0.412 -0.955,0.738 -0.608,0.955l0.174,0.781c0.521,0 0.89,-0.109 1.128,-0.347c0,-0.521 -0.239,-0.977 -0.694,-1.389Zm8.594,1.91l-0.955,0c-0.412,0 -0.608,0.152 -0.608,0.434c0,0.239 -0.13,0.347 -0.347,0.347c0,-0.629 -0.217,-0.998 -0.608,-1.128l-1.128,0c0,0.239 0.109,0.347 0.347,0.347l0.608,0.608l-1.389,0.521l-0.955,0.781c0.174,0.13 0.347,0.174 0.521,0.174c0.174,0 0.304,0.087 0.434,0.26l1.562,0c0.521,0 1.345,-0.26 2.517,-0.781l0,-1.562Zm-6.944,0.781c-0.347,0 -0.673,0.239 -0.955,0.694c-0.239,0.412 -0.347,0.825 -0.347,1.215l0,0.955c0.629,0.521 1.215,0.781 1.736,0.781l0.521,0l0.608,-0.434l0,-2.431l-0.781,-0.608l-0.781,-0.174Zm-3.038,0.955c-0.13,0 -0.326,0.13 -0.608,0.347c-0.239,0.174 -0.347,0.326 -0.347,0.434c0.521,0.13 0.977,0.13 1.389,0l-0.434,-0.781Zm42.361,1.128l2.257,0l0,-0.521l-2.257,0l0,0.521Zm-33.333,0.608c0.217,0 0.347,-0.195 0.347,-0.608l-1.128,0l-0.434,0.608l1.215,0Zm-10.503,0.174c-0.651,0.13 -0.955,0.391 -0.955,0.781l0.955,0c0.109,-0.109 0.109,-0.369 0,-0.781Zm8.767,1.128c0.217,0.13 0.608,0.174 1.128,0.174c0,-0.347 -0.26,-0.651 -0.781,-0.955l-0.347,0.781Zm-5.556,0c-0.521,0.521 -0.781,0.911 -0.781,1.128l1.736,0.26l0.347,-0.781c-0.239,-0.282 -0.347,-0.477 -0.347,-0.608l-0.955,0Zm3.212,1.562l-0.174,-1.128c-0.651,0 -0.955,0.239 -0.955,0.694l0,0.781l1.128,-0.347Zm3.646,0.347c0,-0.217 -0.13,-0.347 -0.347,-0.347l-0.434,-0.434c-0.239,0.174 -0.781,0.26 -1.649,0.26l-0.781,0.174l-0.434,0.174l0.955,0.781c0.803,-0.282 1.259,-0.434 1.389,-0.434l1.302,-0.174Zm-3.038,1.91l0.608,-0.347l-1.562,-0.434l0,0.781l0.955,0Zm-1.302,0c-0.521,-0.217 -1.042,-0.347 -1.562,-0.347l0.347,0.694c0.521,0 0.911,-0.109 1.215,-0.347Zm-2.344,1.128c0,0.13 -0.13,0.326 -0.347,0.608l2.083,0.174c0.217,0 0.347,-0.195 0.347,-0.608l-2.083,-0.174Zm-1.91,1.389c0.282,0.347 0.651,0.521 1.128,0.521l-0.694,-1.476l-1.389,0.174l0.955,0.781Zm3.299,1.649c-0.304,-0.456 -0.391,-0.781 -0.26,-0.955c0.174,-0.347 0.174,-0.564 0,-0.694l-0.521,0.521c-0.13,0 -0.174,0.152 -0.174,0.434l0,0.694l0.955,0Zm3.819,-0.347c0.629,0 0.955,-0.26 0.955,-0.781l-0.955,0l0,0.781Zm-10.156,-0.608c-0.347,0.174 -0.521,0.391 -0.521,0.608l1.128,0.347c0,-0.217 0.043,-0.391 0.174,-0.521l0.174,-0.174l-0.955,-0.26Zm5.382,1.389l0,0.781l0.521,0l0,-0.781l-0.521,0Zm0.955,0.347c0,0.304 0.043,0.434 0.174,0.434l0.174,0.347l1.302,-0.347c-0.13,0 -0.174,-0.13 -0.174,-0.434l0,-0.174c-0.239,0 -0.434,0.043 -0.608,0.087c-0.13,0.065 -0.239,0.087 -0.347,0.087l-0.521,0Zm3.038,1.736l-1.128,0l0,0.781l1.128,0l0,-0.781Zm-10.851,1.128c-0.304,0.412 -0.239,0.781 0.174,1.128c0.629,-0.217 0.955,-0.608 0.955,-1.128l-1.128,0Zm3.993,1.302l0.347,0.26c0.282,0 0.477,-0.087 0.608,-0.26l-0.174,-0.955l-0.434,0c0,0 -0.043,0.065 -0.087,0.174c-0.065,0.065 -0.087,0.087 -0.087,0.087l-0.347,0l0,0.694l0.174,0Zm-3.993,3.125c0.456,0 0.781,-0.087 0.955,-0.26c0,-0.109 0.022,-0.195 0.087,-0.26c0.043,-0.043 0.13,-0.13 0.26,-0.26l-0.608,-0.434l-0.955,0.434l0.26,0.781Zm5.469,-0.434l-0.955,0l0,0.174l0.781,0.26l0.174,-0.434Zm-3.038,2.344c0.282,0.239 0.608,0.347 0.955,0.347l0,-1.128c-0.347,0 -0.673,0.26 -0.955,0.781Zm16.753,7.205l1.562,0l0,-0.347l-1.562,0l0,0.347Zm7.639,0.174c-0.651,0.412 -0.955,0.608 -0.955,0.608c0.391,0.13 0.608,0.391 0.608,0.781l0.955,0c0.217,-0.282 0.347,-0.477 0.347,-0.608l0.174,-0.347l-0.347,-0.955c0,0.13 -0.065,0.239 -0.174,0.347c-0.13,0.13 -0.326,0.174 -0.608,0.174Zm10.851,0.781l0.434,0l0.174,-0.347l-0.174,-0.26l-0.434,0.608Zm-16.146,-0.347l-1.128,0l0,0.347l1.128,0l0,-0.347Zm8.767,1.476l0.781,-0.174c0,-0.109 -0.087,-0.174 -0.26,-0.174c0,0 -0.13,-0.13 -0.347,-0.434l-0.174,0.781Zm-11.111,0.434l0.434,0.347c0.629,-0.217 0.738,-0.477 0.347,-0.781c-0.239,0 -0.347,0.065 -0.347,0.174l-0.434,0l0,0.26Zm6.684,0.347c-0.239,-0.217 -0.564,-0.347 -0.955,-0.347l0.434,1.302l0.174,-0.174c0.109,0 0.174,-0.13 0.174,-0.434c0.109,0 0.174,-0.109 0.174,-0.347Zm3.646,0.347c-0.651,0.304 -0.955,0.608 -0.955,0.955l0.955,0c0,-0.217 0.043,-0.391 0.174,-0.521l-0.174,-0.434Zm-27.083,2.865l0,1.128c0,0 0.13,-0.109 0.434,-0.347l0.694,-0.781l-1.128,0Zm3.819,0c0,0.412 0.304,0.608 0.955,0.608l0,-0.434c0,-0.109 0.043,-0.174 0.174,-0.174l-1.128,0Zm9.896,0.608l0.434,0.781l0.347,0l-0.608,-0.781l-0.174,0Zm18.316,0.521c0,0.651 0.304,0.955 0.955,0.955l0.347,-0.521l0.26,-0.434l-1.562,0Zm-6.684,0.434l-0.347,0l-0.174,0.521l0.521,0l0,-0.521Zm-6.25,1.302l0.347,-0.347l-0.347,-0.434l-0.434,0l0.434,0.781Zm-16.406,1.91l-1.562,0l0,0.955l1.562,0l0,-0.955Zm-17.535,4.167c0,-0.564 0.174,-0.955 0.521,-1.128l-2.431,0l0,1.128l1.91,0Zm69.358,-0.347l2.344,0.347l0,-0.521l-1.91,-0.608l-0.434,0.781Zm-56.944,-0.347l-2.17,0l0,0.694l2.17,0l0,-0.694Zm12.587,0.694l0,0.955l1.476,0l0,-0.955l-1.476,0Zm10.417,0.781c-0.13,0.304 -0.174,0.825 -0.174,1.562l0.174,0.955l2.691,0l0.347,-0.781c0.174,-0.109 0.26,-0.369 0.26,-0.781l-0.955,-0.955l-2.344,0Zm-29.34,0.955l2.083,0l0,-0.781l-2.083,0l0,0.781Zm8.42,3.993c0.347,-0.109 0.629,-0.456 0.868,-1.042c0.282,-0.564 0.434,-1.172 0.434,-1.823c0,-0.738 -0.174,-1.302 -0.521,-1.649c-0.304,0 -0.825,0.174 -1.562,0.521c0.521,1.172 0.781,2.496 0.781,3.993Zm-19.097,-2.604c0.109,0.347 0.456,0.499 1.042,0.434c0.564,-0.043 0.998,-0.195 1.302,-0.434l-2.344,0Zm7.986,0.694l-0.347,0l0,-0.694l-1.736,0l0,0.694l1.736,0l0,0.781l0.347,0l0,-0.781Zm19.878,0.434c-1.042,0 -1.736,0.065 -2.083,0.174l-1.215,0.347l-0.955,0.26c0.282,0.13 0.543,0.347 0.781,0.694c0.282,0.304 0.477,0.564 0.608,0.781c0.629,-0.347 1.259,-0.825 1.91,-1.476l0.955,-0.781Zm-13.021,1.736c0.282,-0.391 0.434,-0.803 0.434,-1.215l-3.212,0l0,1.736c0.977,0 1.845,0.152 2.604,0.434l0.174,-0.955Zm34.896,-0.26l1.389,0l0,-0.347l-1.389,0l0,0.347Zm24.219,2.517c0,0.412 -0.13,0.608 -0.347,0.608c0.347,0 0.716,-0.195 1.128,-0.608l-0.781,0Zm-61.372,0.347l-1.476,0l0,0.781l1.476,0l0,-0.781Z" style="fill:#fff;fill-rule:nonzero;"/></g></g></g></g></g></svg>